G04*
G04 #@! TF.GenerationSoftware,Altium Limited,Altium Designer,23.3.1 (30)*
G04*
G04 Layer_Physical_Order=2*
G04 Layer_Color=16711680*
%FSLAX44Y44*%
%MOMM*%
G71*
G04*
G04 #@! TF.SameCoordinates,9821F40D-38B2-4F82-885C-9BFABF201401*
G04*
G04*
G04 #@! TF.FilePolarity,Positive*
G04*
G01*
G75*
%ADD12C,3.0000*%
G36*
X726550Y432593D02*
X730284Y431460D01*
X733726Y429621D01*
X736742Y427145D01*
X739217Y424129D01*
X741057Y420687D01*
X742189Y416953D01*
X742572Y413070D01*
X742189Y409187D01*
X741057Y405453D01*
X739217Y402011D01*
X736742Y398995D01*
X733726Y396519D01*
X730284Y394680D01*
X726550Y393547D01*
X722667Y393165D01*
X718783Y393547D01*
X715049Y394680D01*
X711608Y396519D01*
X708591Y398995D01*
X706116Y402011D01*
X704277Y405453D01*
X703144Y409187D01*
X702761Y413070D01*
X703144Y416953D01*
X704277Y420687D01*
X706116Y424129D01*
X708591Y427145D01*
X711608Y429621D01*
X715049Y431460D01*
X718783Y432593D01*
X722667Y432975D01*
X726550Y432593D01*
D02*
G37*
G36*
X519898Y375815D02*
X519903Y375801D01*
X519902Y375787D01*
X519911Y375777D01*
X519916Y375765D01*
X519929Y375759D01*
X519939Y375749D01*
X519952Y375748D01*
X519963Y375743D01*
X519977Y375748D01*
X519991Y375748D01*
X522928Y376906D01*
X523727Y374600D01*
X520700Y373820D01*
X520690Y373812D01*
X520677Y373809D01*
X520669Y373797D01*
X520658Y373788D01*
X520656Y373775D01*
X520649Y373764D01*
X520653Y373750D01*
X520651Y373736D01*
X520659Y373726D01*
X520662Y373713D01*
X522510Y371201D01*
X520612Y369808D01*
X518837Y372459D01*
X518825Y372466D01*
X518817Y372478D01*
X518804Y372480D01*
X518793Y372488D01*
X518779Y372485D01*
X518766Y372488D01*
X518755Y372480D01*
X518741Y372478D01*
X518733Y372466D01*
X518722Y372459D01*
X516970Y369831D01*
X515074Y371225D01*
X516899Y373713D01*
X516902Y373725D01*
X516910Y373735D01*
X516908Y373750D01*
X516911Y373764D01*
X516904Y373775D01*
X516903Y373787D01*
X516891Y373796D01*
X516884Y373809D01*
X516871Y373812D01*
X516861Y373820D01*
X513905Y374623D01*
X514681Y376906D01*
X517567Y375748D01*
X517582Y375748D01*
X517595Y375743D01*
X517607Y375748D01*
X517619Y375748D01*
X517630Y375759D01*
X517643Y375765D01*
X517647Y375777D01*
X517656Y375786D01*
X517656Y375801D01*
X517661Y375815D01*
X517520Y378986D01*
X520040D01*
X519898Y375815D01*
D02*
G37*
G36*
X622389Y351694D02*
X622394Y351680D01*
X622394Y351666D01*
X622403Y351656D01*
X622407Y351645D01*
X622420Y351638D01*
X622430Y351628D01*
X622443Y351628D01*
X622454Y351622D01*
X622468Y351627D01*
X622483Y351627D01*
X625419Y352785D01*
X626219Y350479D01*
X623192Y349699D01*
X623181Y349691D01*
X623168Y349688D01*
X623161Y349676D01*
X623150Y349667D01*
X623148Y349654D01*
X623141Y349643D01*
X623144Y349629D01*
X623142Y349615D01*
X623150Y349605D01*
X623153Y349592D01*
X625001Y347080D01*
X623104Y345687D01*
X621328Y348338D01*
X621316Y348345D01*
X621309Y348357D01*
X621296Y348359D01*
X621284Y348367D01*
X621271Y348364D01*
X621257Y348367D01*
X621246Y348359D01*
X621232Y348357D01*
X621225Y348345D01*
X621214Y348338D01*
X619461Y345710D01*
X617565Y347104D01*
X619390Y349592D01*
X619393Y349604D01*
X619401Y349614D01*
X619399Y349629D01*
X619403Y349643D01*
X619396Y349654D01*
X619394Y349667D01*
X619383Y349675D01*
X619375Y349688D01*
X619363Y349691D01*
X619353Y349699D01*
X616397Y350502D01*
X617172Y352785D01*
X620058Y351627D01*
X620073Y351627D01*
X620087Y351622D01*
X620098Y351628D01*
X620111Y351628D01*
X620121Y351638D01*
X620135Y351644D01*
X620139Y351656D01*
X620148Y351665D01*
X620148Y351680D01*
X620153Y351694D01*
X620012Y354865D01*
X622532D01*
X622389Y351694D01*
D02*
G37*
G36*
X655283Y346877D02*
X655303Y346829D01*
X655352Y346809D01*
X659993D01*
Y344369D01*
X655352D01*
X655303Y344349D01*
X655283Y344300D01*
Y339629D01*
X652841D01*
Y344300D01*
X652821Y344349D01*
X652772Y344369D01*
X648131D01*
Y346809D01*
X652772D01*
X652821Y346829D01*
X652841Y346877D01*
Y351548D01*
X655283D01*
Y346877D01*
D02*
G37*
G36*
X410089Y337678D02*
X410109Y337630D01*
X410158Y337610D01*
X414799D01*
Y335170D01*
X410158D01*
X410109Y335149D01*
X410089Y335101D01*
Y330430D01*
X407647D01*
Y335101D01*
X407627Y335149D01*
X407578Y335170D01*
X402937D01*
Y337610D01*
X407578D01*
X407627Y337630D01*
X407647Y337678D01*
Y342349D01*
X410089D01*
Y337678D01*
D02*
G37*
G36*
X692422Y327121D02*
X692427Y327108D01*
X692427Y327093D01*
X692436Y327084D01*
X692440Y327072D01*
X692453Y327066D01*
X692463Y327055D01*
X692476Y327055D01*
X692487Y327049D01*
X692501Y327054D01*
X692516Y327054D01*
X695452Y328213D01*
X696252Y325906D01*
X693225Y325126D01*
X693214Y325118D01*
X693201Y325115D01*
X693194Y325103D01*
X693183Y325095D01*
X693181Y325081D01*
X693174Y325070D01*
X693177Y325056D01*
X693175Y325043D01*
X693183Y325032D01*
X693186Y325019D01*
X695034Y322507D01*
X693137Y321114D01*
X691361Y323765D01*
X691349Y323773D01*
X691342Y323784D01*
X691328Y323787D01*
X691317Y323794D01*
X691304Y323792D01*
X691290Y323794D01*
X691279Y323787D01*
X691265Y323784D01*
X691258Y323773D01*
X691246Y323765D01*
X689494Y321138D01*
X687598Y322531D01*
X689423Y325019D01*
X689426Y325032D01*
X689434Y325042D01*
X689432Y325056D01*
X689436Y325070D01*
X689429Y325081D01*
X689427Y325094D01*
X689416Y325103D01*
X689408Y325115D01*
X689396Y325118D01*
X689386Y325126D01*
X686430Y325929D01*
X687205Y328212D01*
X690091Y327054D01*
X690106Y327054D01*
X690120Y327049D01*
X690131Y327055D01*
X690144Y327055D01*
X690154Y327065D01*
X690167Y327072D01*
X690172Y327084D01*
X690181Y327093D01*
X690180Y327107D01*
X690185Y327121D01*
X690045Y330293D01*
X692565D01*
X692422Y327121D01*
D02*
G37*
G36*
X379060Y314847D02*
X379065Y314833D01*
X379064Y314818D01*
X379073Y314809D01*
X379078Y314797D01*
X379091Y314791D01*
X379101Y314781D01*
X379114Y314780D01*
X379125Y314775D01*
X379139Y314780D01*
X379154Y314780D01*
X382090Y315938D01*
X382890Y313632D01*
X379862Y312852D01*
X379852Y312844D01*
X379839Y312840D01*
X379831Y312829D01*
X379820Y312820D01*
X379818Y312807D01*
X379812Y312796D01*
X379815Y312782D01*
X379813Y312768D01*
X379821Y312757D01*
X379824Y312744D01*
X381672Y310233D01*
X379774Y308839D01*
X377999Y311491D01*
X377987Y311498D01*
X377980Y311509D01*
X377966Y311512D01*
X377955Y311520D01*
X377941Y311517D01*
X377928Y311520D01*
X377917Y311512D01*
X377903Y311509D01*
X377896Y311498D01*
X377884Y311490D01*
X376132Y308863D01*
X374236Y310257D01*
X376061Y312745D01*
X376064Y312757D01*
X376072Y312767D01*
X376070Y312782D01*
X376073Y312796D01*
X376067Y312807D01*
X376065Y312819D01*
X376053Y312828D01*
X376046Y312841D01*
X376033Y312844D01*
X376023Y312852D01*
X373067Y313654D01*
X373843Y315938D01*
X376729Y314780D01*
X376744Y314780D01*
X376758Y314775D01*
X376769Y314780D01*
X376782Y314780D01*
X376792Y314791D01*
X376805Y314797D01*
X376810Y314809D01*
X376818Y314818D01*
X376818Y314833D01*
X376823Y314847D01*
X376682Y318018D01*
X379202D01*
X379060Y314847D01*
D02*
G37*
G36*
X208087Y292349D02*
X208092Y292335D01*
X208092Y292320D01*
X208101Y292311D01*
X208105Y292299D01*
X208119Y292293D01*
X208129Y292283D01*
X208141Y292282D01*
X208153Y292277D01*
X208167Y292282D01*
X208181Y292282D01*
X211117Y293440D01*
X211917Y291134D01*
X208890Y290354D01*
X208880Y290346D01*
X208867Y290343D01*
X208859Y290331D01*
X208848Y290322D01*
X208846Y290309D01*
X208839Y290298D01*
X208843Y290284D01*
X208841Y290270D01*
X208849Y290259D01*
X208852Y290247D01*
X210700Y287735D01*
X208802Y286341D01*
X207026Y288993D01*
X207015Y289000D01*
X207007Y289012D01*
X206994Y289014D01*
X206982Y289022D01*
X206969Y289019D01*
X206956Y289022D01*
X206944Y289014D01*
X206931Y289012D01*
X206923Y289000D01*
X206912Y288993D01*
X205160Y286365D01*
X203264Y287759D01*
X205089Y290247D01*
X205091Y290259D01*
X205099Y290269D01*
X205098Y290284D01*
X205101Y290298D01*
X205094Y290309D01*
X205093Y290322D01*
X205081Y290330D01*
X205074Y290343D01*
X205061Y290346D01*
X205051Y290354D01*
X202095Y291157D01*
X202871Y293440D01*
X205757Y292282D01*
X205771Y292282D01*
X205785Y292277D01*
X205797Y292282D01*
X205809Y292283D01*
X205820Y292293D01*
X205833Y292299D01*
X205837Y292311D01*
X205846Y292320D01*
X205846Y292335D01*
X205851Y292349D01*
X205710Y295520D01*
X208230D01*
X208087Y292349D01*
D02*
G37*
G36*
X680562Y292205D02*
X680582Y292156D01*
X680631Y292136D01*
X685272D01*
Y289696D01*
X680631D01*
X680582Y289676D01*
X680562Y289627D01*
Y284957D01*
X678120D01*
Y289627D01*
X678100Y289676D01*
X678051Y289696D01*
X673410D01*
Y292136D01*
X678051D01*
X678100Y292156D01*
X678120Y292205D01*
Y296876D01*
X680562D01*
Y292205D01*
D02*
G37*
G36*
X142044Y279953D02*
X142049Y279939D01*
X142049Y279925D01*
X142058Y279916D01*
X142062Y279904D01*
X142075Y279898D01*
X142086Y279887D01*
X142098Y279887D01*
X142110Y279881D01*
X142123Y279886D01*
X142138Y279886D01*
X145074Y281045D01*
X145874Y278738D01*
X142847Y277958D01*
X142836Y277950D01*
X142823Y277947D01*
X142816Y277935D01*
X142805Y277927D01*
X142803Y277913D01*
X142796Y277902D01*
X142800Y277888D01*
X142797Y277875D01*
X142806Y277864D01*
X142809Y277851D01*
X144657Y275339D01*
X142759Y273946D01*
X140983Y276597D01*
X140972Y276605D01*
X140964Y276616D01*
X140951Y276619D01*
X140939Y276626D01*
X140926Y276624D01*
X140913Y276626D01*
X140901Y276619D01*
X140888Y276616D01*
X140880Y276605D01*
X140869Y276597D01*
X139116Y273970D01*
X137221Y275363D01*
X139045Y277851D01*
X139048Y277864D01*
X139056Y277874D01*
X139054Y277888D01*
X139058Y277902D01*
X139051Y277913D01*
X139050Y277926D01*
X139038Y277935D01*
X139031Y277947D01*
X139018Y277950D01*
X139008Y277958D01*
X136052Y278761D01*
X136827Y281044D01*
X139713Y279886D01*
X139728Y279886D01*
X139742Y279881D01*
X139754Y279887D01*
X139766Y279887D01*
X139776Y279897D01*
X139790Y279904D01*
X139794Y279916D01*
X139803Y279925D01*
X139803Y279939D01*
X139808Y279953D01*
X139667Y283125D01*
X142187D01*
X142044Y279953D01*
D02*
G37*
G36*
X117661Y254433D02*
X117666Y254419D01*
X117666Y254405D01*
X117675Y254395D01*
X117679Y254383D01*
X117692Y254377D01*
X117702Y254367D01*
X117715Y254366D01*
X117726Y254361D01*
X117740Y254366D01*
X117755Y254366D01*
X120691Y255524D01*
X121491Y253218D01*
X118464Y252438D01*
X118453Y252430D01*
X118440Y252427D01*
X118433Y252415D01*
X118422Y252406D01*
X118420Y252393D01*
X118413Y252382D01*
X118416Y252368D01*
X118414Y252354D01*
X118422Y252344D01*
X118425Y252331D01*
X120274Y249819D01*
X118376Y248426D01*
X116600Y251077D01*
X116588Y251084D01*
X116581Y251096D01*
X116567Y251098D01*
X116556Y251106D01*
X116543Y251103D01*
X116529Y251106D01*
X116518Y251098D01*
X116504Y251096D01*
X116497Y251084D01*
X116486Y251077D01*
X114733Y248449D01*
X112837Y249843D01*
X114662Y252331D01*
X114665Y252343D01*
X114673Y252353D01*
X114671Y252368D01*
X114675Y252382D01*
X114668Y252393D01*
X114666Y252405D01*
X114655Y252414D01*
X114647Y252427D01*
X114635Y252430D01*
X114625Y252438D01*
X111669Y253241D01*
X112444Y255524D01*
X115330Y254366D01*
X115345Y254366D01*
X115359Y254361D01*
X115370Y254366D01*
X115383Y254366D01*
X115393Y254377D01*
X115407Y254383D01*
X115411Y254395D01*
X115420Y254404D01*
X115419Y254419D01*
X115424Y254433D01*
X115284Y257604D01*
X117804D01*
X117661Y254433D01*
D02*
G37*
G36*
X686422Y196047D02*
X686427Y196033D01*
X686427Y196019D01*
X686435Y196010D01*
X686440Y195998D01*
X686453Y195991D01*
X686463Y195981D01*
X686476Y195981D01*
X686488Y195975D01*
X686501Y195980D01*
X686516Y195980D01*
X689452Y197139D01*
X690252Y194832D01*
X687225Y194052D01*
X687214Y194044D01*
X687201Y194041D01*
X687194Y194029D01*
X687183Y194021D01*
X687181Y194007D01*
X687174Y193996D01*
X687177Y193982D01*
X687175Y193969D01*
X687183Y193958D01*
X687186Y193945D01*
X689034Y191433D01*
X687137Y190040D01*
X685361Y192691D01*
X685349Y192699D01*
X685342Y192710D01*
X685328Y192713D01*
X685317Y192720D01*
X685304Y192718D01*
X685290Y192720D01*
X685279Y192713D01*
X685265Y192710D01*
X685258Y192699D01*
X685247Y192691D01*
X683494Y190064D01*
X681598Y191457D01*
X683423Y193945D01*
X683426Y193958D01*
X683434Y193968D01*
X683432Y193982D01*
X683436Y193996D01*
X683429Y194007D01*
X683427Y194020D01*
X683416Y194029D01*
X683408Y194041D01*
X683396Y194044D01*
X683386Y194052D01*
X680430Y194855D01*
X681205Y197138D01*
X684091Y195980D01*
X684106Y195980D01*
X684120Y195975D01*
X684131Y195981D01*
X684144Y195981D01*
X684154Y195991D01*
X684167Y195998D01*
X684172Y196009D01*
X684181Y196018D01*
X684180Y196033D01*
X684185Y196047D01*
X684045Y199219D01*
X686565D01*
X686422Y196047D01*
D02*
G37*
G36*
X644143Y171017D02*
X644148Y171003D01*
X644147Y170988D01*
X644156Y170979D01*
X644161Y170967D01*
X644174Y170961D01*
X644184Y170951D01*
X644197Y170950D01*
X644208Y170945D01*
X644222Y170950D01*
X644237Y170950D01*
X647173Y172108D01*
X647973Y169802D01*
X644946Y169022D01*
X644935Y169014D01*
X644922Y169011D01*
X644915Y168999D01*
X644903Y168990D01*
X644902Y168977D01*
X644895Y168966D01*
X644898Y168952D01*
X644896Y168938D01*
X644904Y168927D01*
X644907Y168915D01*
X646755Y166403D01*
X644858Y165009D01*
X643082Y167661D01*
X643070Y167668D01*
X643063Y167680D01*
X643049Y167682D01*
X643038Y167690D01*
X643025Y167687D01*
X643011Y167690D01*
X643000Y167682D01*
X642986Y167680D01*
X642979Y167668D01*
X642967Y167661D01*
X641215Y165033D01*
X639319Y166427D01*
X641144Y168915D01*
X641147Y168927D01*
X641155Y168937D01*
X641153Y168952D01*
X641156Y168966D01*
X641150Y168977D01*
X641148Y168989D01*
X641137Y168998D01*
X641129Y169011D01*
X641117Y169014D01*
X641106Y169022D01*
X638151Y169825D01*
X638926Y172108D01*
X641812Y170950D01*
X641827Y170950D01*
X641841Y170945D01*
X641852Y170950D01*
X641865Y170950D01*
X641875Y170961D01*
X641888Y170967D01*
X641893Y170979D01*
X641901Y170988D01*
X641901Y171003D01*
X641906Y171017D01*
X641766Y174188D01*
X644286D01*
X644143Y171017D01*
D02*
G37*
G36*
X616529Y154608D02*
X616549Y154559D01*
X616598Y154539D01*
X621239D01*
Y152099D01*
X616598D01*
X616549Y152079D01*
X616529Y152030D01*
Y147360D01*
X614087D01*
Y152030D01*
X614067Y152079D01*
X614018Y152099D01*
X609377D01*
Y154539D01*
X614018D01*
X614067Y154559D01*
X614087Y154608D01*
Y159279D01*
X616529D01*
Y154608D01*
D02*
G37*
G36*
X336832Y129674D02*
X336837Y129660D01*
X336836Y129646D01*
X336845Y129636D01*
X336850Y129624D01*
X336863Y129618D01*
X336873Y129608D01*
X336886Y129607D01*
X336897Y129602D01*
X336911Y129607D01*
X336926Y129607D01*
X339862Y130765D01*
X340662Y128459D01*
X337634Y127679D01*
X337624Y127671D01*
X337611Y127668D01*
X337603Y127656D01*
X337592Y127647D01*
X337590Y127634D01*
X337584Y127623D01*
X337587Y127609D01*
X337585Y127595D01*
X337593Y127585D01*
X337596Y127572D01*
X339444Y125060D01*
X337546Y123666D01*
X335770Y126318D01*
X335759Y126325D01*
X335752Y126337D01*
X335738Y126339D01*
X335727Y126347D01*
X335713Y126344D01*
X335700Y126347D01*
X335689Y126339D01*
X335675Y126337D01*
X335668Y126325D01*
X335656Y126318D01*
X333904Y123690D01*
X332008Y125084D01*
X333833Y127572D01*
X333836Y127584D01*
X333844Y127594D01*
X333842Y127609D01*
X333845Y127623D01*
X333839Y127634D01*
X333837Y127647D01*
X333825Y127655D01*
X333818Y127668D01*
X333805Y127671D01*
X333795Y127679D01*
X330840Y128482D01*
X331615Y130765D01*
X334501Y129607D01*
X334516Y129607D01*
X334530Y129602D01*
X334541Y129607D01*
X334553Y129607D01*
X334564Y129618D01*
X334577Y129624D01*
X334581Y129636D01*
X334590Y129645D01*
X334590Y129660D01*
X334595Y129674D01*
X334454Y132845D01*
X336974D01*
X336832Y129674D01*
D02*
G37*
G36*
X127661D02*
X127666Y129660D01*
X127666Y129646D01*
X127675Y129636D01*
X127679Y129624D01*
X127692Y129618D01*
X127702Y129608D01*
X127715Y129607D01*
X127726Y129602D01*
X127740Y129607D01*
X127755Y129607D01*
X130691Y130765D01*
X131491Y128459D01*
X128464Y127679D01*
X128453Y127671D01*
X128440Y127668D01*
X128433Y127656D01*
X128422Y127647D01*
X128420Y127634D01*
X128413Y127623D01*
X128416Y127609D01*
X128414Y127595D01*
X128422Y127585D01*
X128425Y127572D01*
X130274Y125060D01*
X128376Y123666D01*
X126600Y126318D01*
X126588Y126325D01*
X126581Y126337D01*
X126567Y126339D01*
X126556Y126347D01*
X126543Y126344D01*
X126529Y126347D01*
X126518Y126339D01*
X126504Y126337D01*
X126497Y126325D01*
X126486Y126318D01*
X124733Y123690D01*
X122837Y125084D01*
X124662Y127572D01*
X124665Y127584D01*
X124673Y127594D01*
X124671Y127609D01*
X124675Y127623D01*
X124668Y127634D01*
X124666Y127647D01*
X124655Y127655D01*
X124647Y127668D01*
X124635Y127671D01*
X124625Y127679D01*
X121669Y128482D01*
X122444Y130765D01*
X125330Y129607D01*
X125345Y129607D01*
X125359Y129602D01*
X125370Y129607D01*
X125383Y129607D01*
X125393Y129618D01*
X125407Y129624D01*
X125411Y129636D01*
X125420Y129645D01*
X125419Y129660D01*
X125424Y129674D01*
X125284Y132845D01*
X127804D01*
X127661Y129674D01*
D02*
G37*
G36*
X671303Y186811D02*
X671303Y186811D01*
X671519Y185130D01*
X150051Y117635D01*
X150051Y117635D01*
X148369Y117420D01*
X129636Y262129D01*
X129636Y262129D01*
X129421Y263810D01*
X650889Y331305D01*
X650889Y331305D01*
X652571Y331520D01*
X671303Y186811D01*
D02*
G37*
G36*
X568326Y104141D02*
D01*
X568327Y104141D01*
X568326Y104141D01*
D02*
G37*
G36*
X562903Y103660D02*
D01*
X562901D01*
X562903D01*
D02*
G37*
G36*
X563045Y103660D02*
X563040Y103660D01*
D01*
X563045Y103660D01*
D02*
G37*
G36*
X182254Y109420D02*
X182274Y109372D01*
X182323Y109352D01*
X186964D01*
Y106912D01*
X182323D01*
X182274Y106891D01*
X182254Y106843D01*
Y102172D01*
X179812D01*
Y106843D01*
X179792Y106891D01*
X179743Y106912D01*
X175102D01*
Y109352D01*
X179743D01*
X179792Y109372D01*
X179812Y109420D01*
Y114091D01*
X182254D01*
Y109420D01*
D02*
G37*
G36*
X398089Y107227D02*
X398109Y107178D01*
X398158Y107158D01*
X402799D01*
Y104718D01*
X398158D01*
X398109Y104698D01*
X398089Y104650D01*
Y99979D01*
X395647D01*
Y104650D01*
X395627Y104698D01*
X395578Y104718D01*
X390937D01*
Y107158D01*
X395578D01*
X395627Y107178D01*
X395647Y107227D01*
Y111898D01*
X398089D01*
Y107227D01*
D02*
G37*
G36*
X367411Y72479D02*
X367411Y72479D01*
D01*
X367411Y72479D01*
D02*
G37*
G36*
X345529Y68742D02*
D01*
X345529D01*
X345529D01*
D02*
G37*
G36*
X292693Y65958D02*
X292692Y65958D01*
X292693Y65958D01*
D01*
D02*
G37*
G36*
X260187Y64282D02*
D01*
X260187Y64282D01*
X260187Y64282D01*
D02*
G37*
G36*
X163953Y52734D02*
D01*
Y52737D01*
Y52734D01*
D02*
G37*
G36*
X163953Y52596D02*
Y52597D01*
D01*
Y52596D01*
D02*
G37*
G36*
X166740Y46913D02*
D01*
X166738Y46914D01*
X166740Y46913D01*
D02*
G37*
G36*
X166839Y46813D02*
X166837Y46815D01*
D01*
X166839Y46813D01*
D02*
G37*
G36*
X143983Y42342D02*
D01*
X143983D01*
X143983D01*
D02*
G37*
%LPC*%
G36*
X724144Y428070D02*
X721189D01*
X718291Y427494D01*
X715562Y426363D01*
X713105Y424721D01*
X711015Y422632D01*
X709374Y420175D01*
X708243Y417445D01*
X707667Y414547D01*
Y411593D01*
X708243Y408695D01*
X709374Y405965D01*
X711015Y403508D01*
X713105Y401419D01*
X715562Y399777D01*
X718291Y398647D01*
X721189Y398070D01*
X724144D01*
X727042Y398647D01*
X729772Y399777D01*
X732229Y401419D01*
X734318Y403508D01*
X735959Y405965D01*
X737090Y408695D01*
X737667Y411593D01*
Y414547D01*
X737090Y417445D01*
X735959Y420175D01*
X734318Y422632D01*
X732229Y424721D01*
X729772Y426363D01*
X727042Y427494D01*
X724144Y428070D01*
D02*
G37*
G36*
X649576Y327717D02*
X133284Y260893D01*
X133238Y260866D01*
X133224Y260816D01*
X151287Y121282D01*
X151313Y121237D01*
X151364Y121223D01*
X667656Y188047D01*
X667702Y188074D01*
X667716Y188124D01*
X649653Y327658D01*
X649627Y327703D01*
X649576Y327717D01*
D02*
G37*
%LPD*%
D12*
X722667Y413070D02*
D03*
M02*
