G04*
G04 #@! TF.GenerationSoftware,Altium Limited,Altium Designer,23.3.1 (30)*
G04*
G04 Layer_Physical_Order=1*
G04 Layer_Color=255*
%FSLAX44Y44*%
%MOMM*%
G71*
G04*
G04 #@! TF.SameCoordinates,9821F40D-38B2-4F82-885C-9BFABF201401*
G04*
G04*
G04 #@! TF.FilePolarity,Positive*
G04*
G01*
G75*
%ADD10C,0.0127*%
%ADD12C,3.0000*%
G36*
X722667Y433024D02*
Y432998D01*
X722668Y432999D01*
X726551Y432616D01*
X730285Y431483D01*
X733726Y429644D01*
X736743Y427168D01*
X739218Y424152D01*
X741058Y420711D01*
X742190Y416977D01*
X742573Y413093D01*
D01*
X742573Y413093D01*
X742190Y409210D01*
X741058Y405476D01*
X739218Y402034D01*
X736743Y399018D01*
X733726Y396543D01*
X730285Y394703D01*
X726551Y393570D01*
X722668Y393188D01*
X722667Y393188D01*
Y393162D01*
X722667Y393162D01*
X722506Y393163D01*
X722506D01*
X722347Y393166D01*
X722347Y393166D01*
X722187Y393171D01*
X722027Y393178D01*
X722027Y393178D01*
X721868Y393186D01*
D01*
X721709Y393196D01*
D01*
X721550Y393207D01*
X721392Y393218D01*
D01*
X721074Y393242D01*
X721053Y393236D01*
X721031Y393231D01*
X721028Y393228D01*
X721024Y393226D01*
X721014Y393206D01*
X721001Y393188D01*
X663943Y112566D01*
X663905Y112573D01*
X662855Y109112D01*
X661111Y105849D01*
X658764Y102989D01*
X655904Y100642D01*
X652641Y98898D01*
X649101Y97824D01*
X647831Y97699D01*
X647846Y97587D01*
D01*
X95926Y26205D01*
X95906Y26194D01*
X95886Y26186D01*
X95884Y26181D01*
X95880Y26179D01*
X95874Y26158D01*
X95869Y26145D01*
X95748Y26159D01*
X95630Y24964D01*
X94775Y22145D01*
X93386Y19547D01*
X91517Y17269D01*
X89240Y15400D01*
X86642Y14012D01*
X83823Y13157D01*
X80896Y12868D01*
Y12868D01*
X77964Y13157D01*
X75144Y14012D01*
X72545Y15401D01*
X70267Y17270D01*
X68398Y19548D01*
X67009Y22147D01*
X66153Y24967D01*
X65865Y27899D01*
X65865D01*
X66153Y30823D01*
X67008Y33641D01*
X68397Y36238D01*
X70265Y38515D01*
X72542Y40384D01*
X75139Y41772D01*
X77958Y42627D01*
X78325Y42663D01*
X78310Y42746D01*
X78317Y42749D01*
X78337Y42753D01*
X78341Y42759D01*
X78348Y42762D01*
X78355Y42780D01*
X78366Y42797D01*
X131133Y302314D01*
X131130Y302330D01*
X131131Y302347D01*
X131125Y302355D01*
X131123Y302366D01*
X131109Y302375D01*
X131099Y302388D01*
X125182Y305639D01*
X147037Y308761D01*
X147050Y308769D01*
X147065Y308772D01*
X147072Y308782D01*
X147082Y308788D01*
X147086Y308803D01*
X147094Y308816D01*
X149030Y318584D01*
X151396Y317292D01*
X150722Y313981D01*
X150723Y313977D01*
X150721Y313974D01*
X150728Y313952D01*
X150732Y313930D01*
X150736Y313927D01*
X150737Y313924D01*
X154152Y309812D01*
X154159Y309808D01*
X154164Y309801D01*
X154182Y309796D01*
X154199Y309787D01*
X154207Y309790D01*
X154215Y309788D01*
X167407Y311672D01*
X167425Y311683D01*
X167446Y311691D01*
X172857Y317059D01*
X172865Y317077D01*
X172876Y317094D01*
X178842Y346616D01*
X178842Y346620D01*
X178843Y346623D01*
X178837Y346645D01*
X178832Y346668D01*
X178829Y346670D01*
X178828Y346674D01*
X175643Y350521D01*
X182185Y346993D01*
X180811Y339853D01*
X180814Y339842D01*
X180811Y339830D01*
X180819Y339817D01*
X180822Y339801D01*
X180832Y339795D01*
X180837Y339785D01*
X180853Y339781D01*
X180866Y339772D01*
X180877Y339775D01*
X180889Y339772D01*
X189704Y341023D01*
X189715Y341030D01*
X189729Y341031D01*
X189737Y341043D01*
X189750Y341050D01*
X189753Y341062D01*
X189761Y341073D01*
X190351Y343224D01*
X192947Y343593D01*
X177415Y322790D01*
X177411Y322775D01*
X177403Y322762D01*
X175399Y312906D01*
X175401Y312894D01*
X175398Y312882D01*
X175406Y312869D01*
X175409Y312854D01*
X175419Y312847D01*
X175425Y312837D01*
X175440Y312833D01*
X175453Y312825D01*
X175464Y312827D01*
X175476Y312824D01*
X197453Y315963D01*
X197467Y315971D01*
X197482Y315975D01*
X197488Y315984D01*
X197498Y315990D01*
X197502Y316005D01*
X197511Y316018D01*
X199467Y325861D01*
X199465Y325872D01*
X199468Y325884D01*
X199460Y325897D01*
X199457Y325912D01*
X199447Y325919D01*
X199441Y325929D01*
X199426Y325933D01*
X199413Y325941D01*
X199402Y325939D01*
X199390Y325942D01*
X187893Y324304D01*
X203417Y345098D01*
X203421Y345112D01*
X203429Y345124D01*
X204581Y350262D01*
X204580Y350267D01*
X204583Y350273D01*
X204576Y350293D01*
X204572Y350313D01*
X204567Y350317D01*
X204565Y350322D01*
X201176Y354112D01*
X207326Y350811D01*
X205693Y343385D01*
X205695Y343373D01*
X205692Y343361D01*
X205700Y343348D01*
X205702Y343333D01*
X205713Y343326D01*
X205719Y343315D01*
X205733Y343312D01*
X205745Y343303D01*
X205758Y343305D01*
X205770Y343302D01*
X214550Y344551D01*
X214561Y344558D01*
X214573Y344559D01*
X214582Y344571D01*
X214595Y344578D01*
X214598Y344590D01*
X214606Y344601D01*
X215218Y346751D01*
X219272Y347326D01*
X218249Y341538D01*
X209500Y340296D01*
X209486Y340288D01*
X209471Y340285D01*
X209464Y340275D01*
X209454Y340269D01*
X209450Y340254D01*
X209442Y340241D01*
X207987Y332901D01*
X207990Y332889D01*
X207987Y332878D01*
X207995Y332864D01*
X207998Y332849D01*
X208008Y332843D01*
X208014Y332833D01*
X208029Y332829D01*
X208041Y332820D01*
X208053Y332822D01*
X208064Y332820D01*
X216810Y334064D01*
X215523Y328938D01*
X210240Y331787D01*
X210217Y331790D01*
X210194Y331795D01*
X210191Y331792D01*
X210187Y331793D01*
X210169Y331778D01*
X210150Y331765D01*
X208522Y329349D01*
X202642Y328511D01*
X202628Y328503D01*
X202613Y328500D01*
X202607Y328490D01*
X202596Y328484D01*
X202593Y328470D01*
X202584Y328457D01*
X201130Y321172D01*
X201131Y321168D01*
X201129Y321165D01*
X201136Y321143D01*
X201140Y321121D01*
X201144Y321119D01*
X201145Y321115D01*
X204592Y317016D01*
X204599Y317012D01*
X204603Y317005D01*
X204622Y317001D01*
X204639Y316992D01*
X204646Y316994D01*
X204654Y316992D01*
X217997Y318899D01*
X218016Y318910D01*
X218036Y318918D01*
X223434Y324276D01*
X223442Y324295D01*
X223453Y324311D01*
X225459Y334153D01*
X225459Y334157D01*
X225460Y334160D01*
X225454Y334182D01*
X225449Y334205D01*
X225446Y334207D01*
X225445Y334211D01*
X222094Y338271D01*
X227451Y343909D01*
X227458Y343928D01*
X227469Y343945D01*
X229175Y353748D01*
X229175Y353749D01*
X229176Y353750D01*
X229170Y353775D01*
X229164Y353799D01*
X229163Y353800D01*
X229163Y353801D01*
X226210Y357700D01*
X236833Y352023D01*
X236854Y352021D01*
X236874Y352015D01*
X373725Y369713D01*
X379028Y364246D01*
X379038Y364242D01*
X379044Y364234D01*
X379061Y364232D01*
X379077Y364225D01*
X379086Y364229D01*
X379096Y364228D01*
X379110Y364238D01*
X379126Y364245D01*
X379130Y364254D01*
X379138Y364260D01*
X388770Y381346D01*
X402431Y367268D01*
X402440Y367264D01*
X402446Y367256D01*
X402463Y367254D01*
X402479Y367247D01*
X402489Y367251D01*
X402499Y367250D01*
X402512Y367260D01*
X402528Y367267D01*
X402532Y367276D01*
X402540Y367282D01*
X412170Y384373D01*
X425826Y370288D01*
X425835Y370284D01*
X425841Y370275D01*
X425858Y370273D01*
X425874Y370267D01*
X425883Y370270D01*
X425893Y370269D01*
X425907Y370280D01*
X425923Y370286D01*
X425927Y370295D01*
X425935Y370302D01*
X435577Y387390D01*
X449251Y373312D01*
X449260Y373308D01*
X449267Y373300D01*
X449284Y373298D01*
X449299Y373291D01*
X449309Y373295D01*
X449319Y373294D01*
X449332Y373304D01*
X449348Y373311D01*
X449352Y373320D01*
X449360Y373326D01*
X453111Y379967D01*
X702715Y412263D01*
X702736Y412275D01*
X702757Y412285D01*
X702758Y412288D01*
X702760Y412289D01*
X702767Y412312D01*
X702775Y412334D01*
X702771Y412411D01*
X702771Y412411D01*
X702771Y412411D01*
X702767Y412488D01*
X702767Y412488D01*
X702767Y412488D01*
X702762Y412564D01*
X702762Y412564D01*
X702762Y412564D01*
X702757Y412640D01*
X702752Y412716D01*
X702752Y412716D01*
X702747Y412791D01*
X702747Y412791D01*
X702743Y412867D01*
Y412867D01*
X702739Y412942D01*
X702812Y412945D01*
X702783Y413093D01*
X702762Y413093D01*
X703145Y416977D01*
X704277Y420711D01*
X706117Y424152D01*
X708592Y427168D01*
X711609Y429644D01*
X715050Y431483D01*
X718784Y432616D01*
X722667Y432999D01*
Y433024D01*
X722667D01*
D02*
G37*
G36*
X136983Y329147D02*
X130587Y332634D01*
X139230Y333861D01*
X139242Y333868D01*
X139255Y333869D01*
X139263Y333881D01*
X139276Y333888D01*
X139279Y333900D01*
X139287Y333911D01*
X139877Y336066D01*
X142483Y336436D01*
X136983Y329147D01*
D02*
G37*
G36*
X214323Y328070D02*
X211231Y327629D01*
X211507Y329589D01*
X214323Y328070D01*
D02*
G37*
G36*
X165031Y320991D02*
X160611Y320361D01*
X164589Y339624D01*
X169010Y340251D01*
X165031Y320991D01*
D02*
G37*
G36*
X156853Y343667D02*
X156752Y343568D01*
X156744Y343549D01*
X156733Y343532D01*
X153727Y328751D01*
X145939Y318325D01*
X137430Y317112D01*
X152992Y337947D01*
X152996Y337961D01*
X153004Y337973D01*
X154155Y343120D01*
X154154Y343125D01*
X154157Y343131D01*
X154150Y343151D01*
X154146Y343171D01*
X154141Y343175D01*
X154139Y343181D01*
X150735Y346973D01*
X156853Y343667D01*
D02*
G37*
%LPC*%
G36*
X703571Y407203D02*
X703567Y407201D01*
X703562Y407202D01*
X687793Y405162D01*
X687774Y405151D01*
X687753Y405143D01*
X687751Y405138D01*
X687747Y405136D01*
X687741Y405115D01*
X687733Y405094D01*
X687735Y405090D01*
X687733Y405085D01*
X687744Y405066D01*
X687752Y405046D01*
X687757Y405044D01*
X687759Y405040D01*
X687781Y405034D01*
X687801Y405025D01*
X688397Y405021D01*
X687135Y253024D01*
X687143Y253005D01*
X687147Y252985D01*
X687152Y252982D01*
X687155Y252975D01*
X687174Y252967D01*
X687190Y252956D01*
X687197Y252957D01*
X687204Y252955D01*
X687222Y252962D01*
X687242Y252966D01*
X687246Y252972D01*
X687252Y252974D01*
X687260Y252993D01*
X687271Y253010D01*
X701134Y321189D01*
X701133Y321194D01*
X701135Y321198D01*
X706774Y401075D01*
X706773Y401077D01*
X706774Y401080D01*
X706765Y401102D01*
X706758Y401120D01*
X706846Y401186D01*
X706082Y402117D01*
X704252Y405541D01*
X703751Y407191D01*
X703633Y407154D01*
X703628Y407162D01*
X703620Y407183D01*
X703615Y407185D01*
X703613Y407189D01*
X703591Y407195D01*
X703571Y407203D01*
D02*
G37*
G36*
X687150Y405078D02*
X687146Y405076D01*
X687141Y405078D01*
X679998Y404154D01*
X679978Y404142D01*
X679957Y404133D01*
X679956Y404130D01*
X679952Y404128D01*
X679946Y404105D01*
X679938Y404084D01*
X683251Y233920D01*
X683259Y233902D01*
X683263Y233883D01*
X683269Y233879D01*
X683272Y233872D01*
X683290Y233865D01*
X683306Y233854D01*
X683314Y233855D01*
X683321Y233852D01*
X683339Y233860D01*
X683358Y233864D01*
X683362Y233870D01*
X683370Y233874D01*
X683376Y233892D01*
X683387Y233908D01*
X685900Y246263D01*
X685898Y246270D01*
X685901Y246276D01*
X687218Y405009D01*
X687216Y405014D01*
X687218Y405018D01*
X687207Y405037D01*
X687199Y405058D01*
X687194Y405060D01*
X687192Y405064D01*
X687170Y405070D01*
X687150Y405078D01*
D02*
G37*
G36*
X677380Y403814D02*
X677376Y403813D01*
X677372Y403814D01*
X640907Y399096D01*
X640907Y399096D01*
X640906Y399096D01*
X640885Y399083D01*
X640861Y399070D01*
X640861Y399069D01*
X640861Y399069D01*
X640855Y399045D01*
X640848Y399019D01*
X640848Y399019D01*
X640848Y399018D01*
X664194Y230758D01*
X664204Y230741D01*
X664210Y230723D01*
X667064Y227363D01*
X665625Y220478D01*
X665627Y220466D01*
X665624Y220455D01*
X671664Y176922D01*
X671672Y176908D01*
X671675Y176893D01*
X671685Y176886D01*
X671691Y176876D01*
X671706Y176872D01*
X671719Y176864D01*
X671730Y176866D01*
X671742Y176863D01*
X671755Y176871D01*
X671770Y176874D01*
X671777Y176884D01*
X671787Y176889D01*
X671791Y176904D01*
X671799Y176917D01*
X680985Y222093D01*
X680984Y222101D01*
X680986Y222108D01*
X677449Y403747D01*
X677448Y403751D01*
X677449Y403755D01*
X677438Y403774D01*
X677428Y403795D01*
X677425Y403797D01*
X677423Y403800D01*
X677401Y403806D01*
X677380Y403814D01*
D02*
G37*
G36*
X709261Y398497D02*
X709200Y398430D01*
X709181Y398438D01*
X709159Y398448D01*
X709156Y398448D01*
X709154Y398449D01*
X709132Y398439D01*
X709109Y398432D01*
X709108Y398429D01*
X709105Y398428D01*
X709096Y398406D01*
X709085Y398385D01*
X705041Y341090D01*
X705048Y341069D01*
X705052Y341048D01*
X705056Y341045D01*
X705058Y341040D01*
X705078Y341030D01*
X705096Y341018D01*
X705100Y341019D01*
X705105Y341017D01*
X705126Y341024D01*
X705147Y341028D01*
X705150Y341032D01*
X705155Y341034D01*
X705164Y341053D01*
X705177Y341072D01*
X715993Y394269D01*
X715992Y394276D01*
X715995Y394283D01*
X715987Y394301D01*
X715983Y394321D01*
X715977Y394325D01*
X715975Y394331D01*
X715956Y394339D01*
X715948Y394344D01*
X715982Y394439D01*
X715065Y394717D01*
X711630Y396553D01*
X709261Y398497D01*
D02*
G37*
G36*
X639600Y398927D02*
X615554Y395816D01*
X615551Y395814D01*
X615548Y395815D01*
X615529Y395801D01*
X615508Y395789D01*
X615508Y395786D01*
X615505Y395784D01*
X615501Y395761D01*
X615495Y395739D01*
X615496Y395736D01*
X615496Y395733D01*
X648406Y247219D01*
X645929Y246863D01*
X613009Y395423D01*
X612996Y395443D01*
X612984Y395463D01*
X612981Y395464D01*
X612979Y395466D01*
X612956Y395470D01*
X612933Y395476D01*
X575660Y390654D01*
X575653Y390650D01*
X575646Y390651D01*
X575631Y390638D01*
X575614Y390628D01*
X575612Y390620D01*
X575607Y390616D01*
X575606Y390596D01*
X575601Y390577D01*
X575605Y390570D01*
X575604Y390563D01*
X627163Y244166D01*
X624646Y243804D01*
X573065Y390263D01*
X573052Y390278D01*
X573042Y390295D01*
X573035Y390297D01*
X573030Y390302D01*
X573011Y390303D01*
X572992Y390309D01*
X559582Y388574D01*
X559574Y388569D01*
X559565Y388569D01*
X559552Y388556D01*
X559536Y388547D01*
X559534Y388539D01*
X559528Y388532D01*
X559527Y388514D01*
X559523Y388497D01*
X559527Y388489D01*
X559527Y388480D01*
X618312Y242894D01*
X617113Y242722D01*
X558308Y388357D01*
X558295Y388370D01*
X558286Y388385D01*
X558277Y388388D01*
X558271Y388394D01*
X558253Y388394D01*
X558235Y388399D01*
X517856Y383175D01*
X517845Y383168D01*
X517832Y383167D01*
X517823Y383156D01*
X517811Y383148D01*
X517807Y383136D01*
X517799Y383126D01*
X517800Y383111D01*
X517797Y383098D01*
X517803Y383086D01*
X517805Y383073D01*
X596527Y239764D01*
X593887Y239385D01*
X515120Y382777D01*
X515108Y382786D01*
X515101Y382798D01*
X515089Y382801D01*
X515079Y382809D01*
X515064Y382808D01*
X515051Y382812D01*
X469986Y376981D01*
X469971Y376973D01*
X469955Y376969D01*
X469949Y376960D01*
X469940Y376955D01*
X469936Y376938D01*
X469927Y376924D01*
X469929Y376914D01*
X469926Y376904D01*
X469935Y376889D01*
X469939Y376873D01*
X570937Y236087D01*
X569623Y235898D01*
X468570Y376761D01*
X468561Y376767D01*
X468556Y376776D01*
X468539Y376780D01*
X468525Y376789D01*
X468515Y376787D01*
X468505Y376789D01*
X456348Y375216D01*
X456343Y375214D01*
X456338Y375215D01*
X456321Y375201D01*
X456302Y375190D01*
X456301Y375185D01*
X456297Y375182D01*
X451092Y365968D01*
X451091Y365954D01*
X451084Y365941D01*
X451087Y365929D01*
X451086Y365916D01*
X451095Y365905D01*
X451099Y365891D01*
X557733Y234190D01*
X556375Y233995D01*
X450510Y364746D01*
X450498Y364752D01*
X450490Y364762D01*
X450476Y364764D01*
X450464Y364771D01*
X450451Y364767D01*
X450438Y364769D01*
X450427Y364760D01*
X450416Y364757D01*
X436737Y378840D01*
X436728Y378844D01*
X436722Y378852D01*
X436705Y378854D01*
X436689Y378861D01*
X436680Y378857D01*
X436670Y378858D01*
X436656Y378848D01*
X436640Y378842D01*
X436636Y378832D01*
X436628Y378826D01*
X426986Y361733D01*
X413330Y375813D01*
X413321Y375817D01*
X413314Y375825D01*
X413297Y375827D01*
X413282Y375834D01*
X413272Y375830D01*
X413262Y375831D01*
X413249Y375821D01*
X413233Y375814D01*
X413229Y375805D01*
X413221Y375799D01*
X404263Y359901D01*
X404261Y359884D01*
X404254Y359868D01*
X404258Y359859D01*
X404257Y359849D01*
X404268Y359835D01*
X404274Y359819D01*
X532518Y230567D01*
X531066Y230358D01*
X403701Y358725D01*
X398084Y364386D01*
X398084Y364386D01*
X397976Y364494D01*
X397975Y364498D01*
X389930Y372791D01*
X389921Y372795D01*
X389915Y372803D01*
X389898Y372805D01*
X389882Y372812D01*
X389873Y372808D01*
X389862Y372809D01*
X389849Y372799D01*
X389833Y372792D01*
X389829Y372783D01*
X389821Y372777D01*
X380189Y355686D01*
X371857Y364277D01*
X371853Y364280D01*
X371850Y364284D01*
X371829Y364290D01*
X371809Y364298D01*
X371804Y364296D01*
X371799Y364298D01*
X335381Y359587D01*
X335358Y359574D01*
X335336Y359562D01*
X335336Y359561D01*
X335335Y359561D01*
X335328Y359535D01*
X335322Y359512D01*
X335322Y359511D01*
X335322Y359510D01*
X335335Y359487D01*
X335347Y359466D01*
X399126Y307904D01*
X397530Y307680D01*
X333629Y359339D01*
X333628Y359339D01*
X333628Y359340D01*
X333602Y359347D01*
X333579Y359354D01*
X333578Y359354D01*
X333577Y359354D01*
X307720Y356009D01*
X307720Y356009D01*
X307719Y356009D01*
X307697Y355996D01*
X307675Y355983D01*
X307675Y355982D01*
X307674Y355982D01*
X307668Y355957D01*
X307661Y355932D01*
X307661Y355932D01*
X307661Y355931D01*
X307674Y355909D01*
X307687Y355887D01*
X307688Y355886D01*
X307688Y355886D01*
X376970Y304784D01*
X373442Y304287D01*
X303998Y355508D01*
X303973Y355515D01*
X303949Y355521D01*
X248199Y348310D01*
X248196Y348308D01*
X248192Y348309D01*
X248174Y348296D01*
X248154Y348284D01*
X248153Y348281D01*
X248150Y348278D01*
X248146Y348256D01*
X248140Y348233D01*
X248142Y348230D01*
X248141Y348227D01*
X248155Y348208D01*
X248166Y348188D01*
X248170Y348187D01*
X248172Y348184D01*
X328900Y298015D01*
X327084Y297759D01*
X246185Y348034D01*
X246162Y348038D01*
X246140Y348044D01*
X241214Y347407D01*
X241198Y347398D01*
X241181Y347393D01*
X241176Y347385D01*
X241168Y347381D01*
X241164Y347363D01*
X241155Y347348D01*
X241157Y347339D01*
X241154Y347330D01*
X241163Y347314D01*
X241168Y347297D01*
X241223Y347225D01*
X239520Y337456D01*
X237050Y334855D01*
X237046Y334847D01*
X237040Y334842D01*
X237037Y334823D01*
X237031Y334806D01*
X237034Y334798D01*
X237033Y334790D01*
X237044Y334775D01*
X237052Y334758D01*
X237060Y334755D01*
X237065Y334748D01*
X306507Y294862D01*
X302485Y294295D01*
X235268Y332904D01*
X235250Y332906D01*
X235232Y332913D01*
X235224Y332910D01*
X235216Y332911D01*
X235201Y332900D01*
X235184Y332892D01*
X234127Y331779D01*
X234119Y331758D01*
X234108Y331738D01*
X234109Y331734D01*
X234108Y331730D01*
X234117Y331709D01*
X234124Y331688D01*
X237496Y327599D01*
X235495Y317794D01*
X230120Y312457D01*
X216806Y310551D01*
X210502Y313965D01*
X210492Y313966D01*
X210483Y313972D01*
X210467Y313969D01*
X210450Y313971D01*
X210442Y313964D01*
X210431Y313962D01*
X210422Y313948D01*
X210409Y313938D01*
X210408Y313927D01*
X210402Y313918D01*
X209525Y309508D01*
X200642Y308237D01*
X200636Y308233D01*
X200629Y308233D01*
X200614Y308220D01*
X200597Y308210D01*
X200595Y308203D01*
X200590Y308198D01*
X200589Y308178D01*
X200584Y308159D01*
X200588Y308153D01*
X200587Y308146D01*
X200601Y308131D01*
X200611Y308114D01*
X200618Y308112D01*
X200623Y308106D01*
X246246Y286375D01*
X241773Y285745D01*
X195980Y307558D01*
X195960Y307559D01*
X195940Y307563D01*
X187591Y306368D01*
X183141Y308791D01*
X183124Y308793D01*
X183108Y308800D01*
X183099Y308796D01*
X183089Y308797D01*
X183076Y308786D01*
X183060Y308780D01*
X179466Y305205D01*
X166303Y303321D01*
X160023Y306754D01*
X160012Y306755D01*
X160004Y306761D01*
X159987Y306758D01*
X159971Y306760D01*
X159962Y306753D01*
X159952Y306751D01*
X159943Y306737D01*
X159930Y306727D01*
X159929Y306716D01*
X159923Y306707D01*
X159045Y302281D01*
X157207Y302018D01*
X157199Y302014D01*
X157191Y302014D01*
X157178Y302001D01*
X157162Y301991D01*
X157160Y301983D01*
X157153Y301977D01*
X157153Y301959D01*
X157149Y301940D01*
X157153Y301933D01*
X157153Y301925D01*
X157166Y301911D01*
X157175Y301895D01*
X157184Y301893D01*
X157190Y301887D01*
X206616Y280795D01*
X204365Y280478D01*
X154739Y301655D01*
X154721Y301655D01*
X154703Y301660D01*
X137029Y299130D01*
X135927Y299735D01*
X135917Y299736D01*
X135908Y299742D01*
X135891Y299739D01*
X135875Y299741D01*
X135867Y299734D01*
X135856Y299732D01*
X135847Y299718D01*
X135834Y299708D01*
X135833Y299697D01*
X135827Y299688D01*
X117835Y211200D01*
X117840Y211175D01*
X117844Y211150D01*
X117845Y211149D01*
X117845Y211148D01*
X117866Y211134D01*
X117886Y211119D01*
X130108Y208220D01*
X129878Y207064D01*
X117656Y209963D01*
X117655Y209963D01*
X117654Y209964D01*
X117629Y209959D01*
X117604Y209955D01*
X117603Y209954D01*
X117602Y209954D01*
X117588Y209933D01*
X117573Y209912D01*
X117573Y209911D01*
X117573Y209910D01*
X109146Y168468D01*
X109147Y168466D01*
X109146Y168465D01*
X109152Y168441D01*
X109156Y168416D01*
X109158Y168415D01*
X109158Y168414D01*
X109179Y168401D01*
X109200Y168387D01*
X109202Y168387D01*
X109203Y168386D01*
X165264Y159513D01*
X164799Y157060D01*
X108699Y165940D01*
X108674Y165934D01*
X108651Y165929D01*
X108650Y165928D01*
X108648Y165927D01*
X108635Y165906D01*
X108621Y165885D01*
X102389Y135233D01*
X102389Y135230D01*
X102388Y135226D01*
X102395Y135204D01*
X102399Y135182D01*
X102402Y135180D01*
X102403Y135176D01*
X102423Y135165D01*
X102443Y135152D01*
X102446Y135153D01*
X102449Y135151D01*
X159576Y129472D01*
X159110Y127014D01*
X101937Y132698D01*
X101914Y132692D01*
X101892Y132687D01*
X101890Y132684D01*
X101886Y132683D01*
X101875Y132663D01*
X101862Y132644D01*
X95788Y102769D01*
X95789Y102763D01*
X95787Y102758D01*
X95794Y102738D01*
X95798Y102717D01*
X95803Y102714D01*
X95805Y102709D01*
X95824Y102699D01*
X95842Y102688D01*
X95848Y102689D01*
X95853Y102686D01*
X159364Y99942D01*
X159375Y99946D01*
X159387Y99945D01*
X159399Y99955D01*
X159414Y99960D01*
X159418Y99970D01*
X159427Y99978D01*
X159429Y99993D01*
X159436Y100008D01*
X159432Y100018D01*
X159433Y100030D01*
X159423Y100042D01*
X159418Y100057D01*
X159408Y100062D01*
X159400Y100071D01*
X156884Y101450D01*
X173105Y103763D01*
X173119Y103771D01*
X173134Y103774D01*
X173141Y103784D01*
X173151Y103790D01*
X173155Y103805D01*
X173163Y103818D01*
X176753Y121976D01*
X193126Y124308D01*
X193144Y124319D01*
X193165Y124327D01*
X203175Y134249D01*
X203183Y134268D01*
X203194Y134284D01*
X210490Y170511D01*
X210490Y170514D01*
X210492Y170517D01*
X210485Y170539D01*
X210480Y170562D01*
X210477Y170564D01*
X210476Y170568D01*
X204385Y177997D01*
X216073Y171627D01*
X216203Y171468D01*
X205404Y118189D01*
X205087Y117875D01*
X188684Y115538D01*
X188671Y115530D01*
X188655Y115527D01*
X188649Y115517D01*
X188639Y115511D01*
X188635Y115496D01*
X188626Y115483D01*
X185347Y98898D01*
X185348Y98893D01*
X185345Y98888D01*
X185353Y98868D01*
X185357Y98847D01*
X185362Y98843D01*
X185363Y98838D01*
X185383Y98829D01*
X185401Y98817D01*
X185406Y98819D01*
X185411Y98816D01*
X271730Y95086D01*
X271735Y95088D01*
X271741Y95086D01*
X361710Y106736D01*
X361727Y106746D01*
X361745Y106751D01*
X361749Y106758D01*
X361756Y106763D01*
X361761Y106781D01*
X361770Y106798D01*
X361768Y106805D01*
X361770Y106813D01*
X361760Y106830D01*
X361755Y106848D01*
X361748Y106852D01*
X361744Y106859D01*
X361725Y106864D01*
X361708Y106873D01*
X295227Y113482D01*
X295224Y113481D01*
X295221Y113482D01*
X295199Y113474D01*
X295177Y113467D01*
X295175Y113464D01*
X295172Y113462D01*
X294661Y112956D01*
X270338Y109487D01*
X258519Y115941D01*
X282676Y119385D01*
X282694Y119396D01*
X282714Y119404D01*
X292713Y129317D01*
X292720Y129336D01*
X292732Y129352D01*
X303727Y183855D01*
X303727Y183859D01*
X303728Y183862D01*
X303722Y183884D01*
X303717Y183907D01*
X303714Y183909D01*
X303713Y183913D01*
X297639Y191237D01*
X309350Y184878D01*
X309569Y184614D01*
X307672Y175272D01*
X307674Y175261D01*
X307672Y175249D01*
X307679Y175236D01*
X307682Y175221D01*
X307692Y175214D01*
X307698Y175204D01*
X307713Y175200D01*
X307726Y175191D01*
X307738Y175194D01*
X307749Y175191D01*
X320336Y176980D01*
X318775Y169341D01*
X314567Y171628D01*
X314556Y171629D01*
X314548Y171635D01*
X314531Y171631D01*
X314515Y171633D01*
X314506Y171626D01*
X314496Y171624D01*
X314487Y171611D01*
X314474Y171600D01*
X314473Y171589D01*
X314467Y171581D01*
X313114Y164878D01*
X313119Y164853D01*
X313123Y164829D01*
X313124Y164828D01*
X313124Y164827D01*
X313145Y164813D01*
X313166Y164798D01*
X317630Y163739D01*
X317394Y162585D01*
X312937Y163641D01*
X312936Y163641D01*
X312935Y163642D01*
X312910Y163637D01*
X312885Y163633D01*
X312885Y163632D01*
X312883Y163632D01*
X312869Y163611D01*
X312854Y163590D01*
X312855Y163589D01*
X312854Y163588D01*
X307504Y137073D01*
X307504Y137071D01*
X307503Y137070D01*
X307509Y137046D01*
X307514Y137021D01*
X307515Y137020D01*
X307515Y137019D01*
X307536Y137006D01*
X307557Y136992D01*
X307559Y136992D01*
X307560Y136991D01*
X312017Y136286D01*
X311517Y133838D01*
X307060Y134544D01*
X307036Y134538D01*
X307012Y134533D01*
X307011Y134532D01*
X307009Y134531D01*
X306996Y134510D01*
X306982Y134489D01*
X304632Y122842D01*
X297593Y115864D01*
X297584Y115842D01*
X297574Y115822D01*
X297575Y115818D01*
X297573Y115815D01*
X297582Y115794D01*
X297589Y115771D01*
X297592Y115770D01*
X297593Y115766D01*
X297614Y115758D01*
X297635Y115746D01*
X373236Y108230D01*
X373244Y108233D01*
X373251Y108231D01*
X427811Y115295D01*
X427826Y115304D01*
X427843Y115308D01*
X427848Y115317D01*
X427857Y115322D01*
X427861Y115338D01*
X427870Y115353D01*
X427868Y115363D01*
X427870Y115372D01*
X427862Y115387D01*
X427858Y115404D01*
X427849Y115409D01*
X427844Y115418D01*
X427828Y115422D01*
X427813Y115431D01*
X372937Y124117D01*
X372926Y124115D01*
X372916Y124117D01*
X364799Y122958D01*
X358467Y126403D01*
X358455Y126404D01*
X358445Y126411D01*
X339864Y129352D01*
X339840Y129346D01*
X339816Y129341D01*
X339815Y129340D01*
X339813Y129340D01*
X339800Y129318D01*
X339786Y129298D01*
X337700Y119095D01*
X321475Y116781D01*
X309641Y123230D01*
X325727Y125523D01*
X325740Y125531D01*
X325755Y125534D01*
X325762Y125544D01*
X325773Y125550D01*
X325776Y125565D01*
X325785Y125577D01*
X336773Y179316D01*
X348756Y181019D01*
X348769Y181027D01*
X348784Y181030D01*
X348791Y181040D01*
X348802Y181046D01*
X348805Y181061D01*
X348814Y181073D01*
X352587Y199197D01*
X360683Y194811D01*
X357484Y191569D01*
X357477Y191551D01*
X357466Y191535D01*
X353822Y173629D01*
X348752Y172908D01*
X348739Y172900D01*
X348724Y172897D01*
X348717Y172887D01*
X348707Y172881D01*
X348703Y172867D01*
X348694Y172854D01*
X345493Y157198D01*
X345498Y157173D01*
X345502Y157148D01*
X345502Y157148D01*
X345503Y157146D01*
X345523Y157132D01*
X345544Y157117D01*
X350074Y156043D01*
X349842Y154888D01*
X345312Y155962D01*
X345311Y155962D01*
X345310Y155962D01*
X345285Y155958D01*
X345260Y155954D01*
X345260Y155953D01*
X345258Y155953D01*
X345244Y155932D01*
X345229Y155911D01*
X345229Y155910D01*
X345229Y155909D01*
X340314Y131880D01*
X340315Y131878D01*
X340314Y131877D01*
X340320Y131852D01*
X340324Y131828D01*
X340326Y131827D01*
X340326Y131825D01*
X340347Y131812D01*
X340368Y131798D01*
X340370Y131799D01*
X340371Y131798D01*
X354284Y129596D01*
X354294Y129598D01*
X354305Y129596D01*
X377071Y132844D01*
X377090Y132855D01*
X377110Y132863D01*
X387096Y142768D01*
X387104Y142787D01*
X387115Y142803D01*
X398114Y197266D01*
X398113Y197270D01*
X398115Y197273D01*
X398108Y197295D01*
X398104Y197318D01*
X398101Y197320D01*
X398099Y197324D01*
X392037Y204644D01*
X403777Y198294D01*
X403957Y198076D01*
X402049Y188687D01*
X402051Y188675D01*
X402048Y188663D01*
X402056Y188650D01*
X402059Y188635D01*
X402069Y188628D01*
X402075Y188618D01*
X402090Y188614D01*
X402103Y188606D01*
X402114Y188608D01*
X402126Y188605D01*
X414693Y190391D01*
X413136Y182787D01*
X408977Y185038D01*
X408966Y185039D01*
X408957Y185045D01*
X408941Y185042D01*
X408924Y185043D01*
X408916Y185037D01*
X408906Y185035D01*
X408897Y185021D01*
X408884Y185010D01*
X408882Y185000D01*
X408877Y184991D01*
X400621Y144121D01*
X400626Y144097D01*
X400630Y144072D01*
X400631Y144071D01*
X400631Y144069D01*
X400652Y144056D01*
X400672Y144041D01*
X404994Y143015D01*
X404758Y141861D01*
X400444Y142884D01*
X400443Y142884D01*
X400442Y142885D01*
X400417Y142880D01*
X400392Y142876D01*
X400391Y142875D01*
X400390Y142875D01*
X400376Y142854D01*
X400361Y142833D01*
X400361Y142832D01*
X400360Y142831D01*
X399042Y136304D01*
X389084Y126425D01*
X381772Y125381D01*
X381757Y125373D01*
X381741Y125369D01*
X381735Y125360D01*
X381726Y125354D01*
X381722Y125338D01*
X381713Y125324D01*
X381716Y125314D01*
X381713Y125304D01*
X381722Y125289D01*
X381726Y125273D01*
X381735Y125267D01*
X381740Y125258D01*
X381756Y125254D01*
X381771Y125245D01*
X437055Y116495D01*
X437065Y116497D01*
X437075Y116495D01*
X484973Y122697D01*
X484986Y122704D01*
X485000Y122707D01*
X485008Y122717D01*
X485019Y122723D01*
X485022Y122737D01*
X485031Y122749D01*
X485029Y122762D01*
X485032Y122774D01*
X485025Y122787D01*
X485023Y122801D01*
X485012Y122809D01*
X485006Y122820D01*
X484992Y122823D01*
X484980Y122832D01*
X432673Y135240D01*
X432672Y135239D01*
X432671Y135240D01*
X432646Y135235D01*
X432621Y135231D01*
X432620Y135230D01*
X432619Y135230D01*
X432605Y135209D01*
X432590Y135189D01*
X432590Y135187D01*
X432589Y135187D01*
X432050Y132554D01*
X415851Y130243D01*
X403991Y136682D01*
X420051Y138971D01*
X420064Y138979D01*
X420079Y138982D01*
X420086Y138992D01*
X420096Y138998D01*
X420100Y139013D01*
X420109Y139026D01*
X431104Y192724D01*
X443068Y194424D01*
X443081Y194432D01*
X443096Y194435D01*
X443103Y194445D01*
X443113Y194451D01*
X443117Y194466D01*
X443125Y194478D01*
X446900Y212589D01*
X454043Y208734D01*
X451396Y195800D01*
X451400Y195780D01*
X451401Y195759D01*
X454748Y188022D01*
X453430Y187830D01*
X453424Y187826D01*
X453417Y187827D01*
X453402Y187813D01*
X453385Y187803D01*
X453383Y187796D01*
X453378Y187792D01*
X453377Y187772D01*
X453372Y187752D01*
X453375Y187746D01*
X453375Y187739D01*
X453388Y187724D01*
X453399Y187707D01*
X453405Y187705D01*
X453410Y187700D01*
X455311Y186795D01*
X456939Y183258D01*
X448786Y187142D01*
X448766Y187143D01*
X448747Y187148D01*
X443109Y186326D01*
X443096Y186318D01*
X443081Y186316D01*
X443075Y186306D01*
X443064Y186299D01*
X443060Y186285D01*
X443052Y186272D01*
X441862Y180463D01*
X441866Y180443D01*
X441866Y180424D01*
X441871Y180418D01*
X441872Y180411D01*
X441889Y180400D01*
X441902Y180386D01*
X457482Y173737D01*
X457245Y172561D01*
X441688Y179200D01*
X441680Y179200D01*
X441674Y179204D01*
X441655Y179200D01*
X441635Y179201D01*
X441630Y179196D01*
X441623Y179194D01*
X441612Y179178D01*
X441598Y179164D01*
X441597Y179157D01*
X441593Y179151D01*
X432854Y136476D01*
X432858Y136451D01*
X432862Y136426D01*
X432863Y136425D01*
X432864Y136424D01*
X432884Y136410D01*
X432905Y136395D01*
X488634Y123176D01*
X488647Y123178D01*
X488659Y123174D01*
X553095Y131518D01*
X553103Y131522D01*
X553112Y131522D01*
X553125Y131535D01*
X553141Y131544D01*
X553143Y131553D01*
X553149Y131559D01*
X553150Y131577D01*
X553154Y131595D01*
X553150Y131603D01*
X553150Y131611D01*
X553137Y131624D01*
X553128Y131640D01*
X553120Y131643D01*
X553113Y131649D01*
X516543Y147256D01*
X516535Y147256D01*
X516529Y147260D01*
X516510Y147256D01*
X516490Y147256D01*
X516485Y147251D01*
X516478Y147249D01*
X516467Y147233D01*
X516452Y147219D01*
X516452Y147212D01*
X516448Y147206D01*
X515914Y144517D01*
X499646Y142196D01*
X487763Y148625D01*
X503891Y150925D01*
X503904Y150933D01*
X503919Y150936D01*
X503926Y150946D01*
X503936Y150952D01*
X503940Y150967D01*
X503949Y150980D01*
X507547Y169090D01*
X523829Y171409D01*
X523847Y171420D01*
X523867Y171428D01*
X533837Y181321D01*
X533844Y181339D01*
X533856Y181356D01*
X541168Y217487D01*
X541168Y217491D01*
X541169Y217494D01*
X541163Y217516D01*
X541158Y217539D01*
X541155Y217540D01*
X541154Y217544D01*
X535106Y224962D01*
X546130Y219033D01*
X535046Y164893D01*
X519572Y162688D01*
X519559Y162680D01*
X519544Y162677D01*
X519537Y162668D01*
X519527Y162661D01*
X519523Y162646D01*
X519515Y162634D01*
X518359Y156821D01*
X518363Y156803D01*
X518362Y156785D01*
X518368Y156778D01*
X518370Y156770D01*
X518385Y156759D01*
X518397Y156746D01*
X567439Y133386D01*
X567458Y133385D01*
X567477Y133380D01*
X579642Y134955D01*
X579646Y134958D01*
X579651Y134957D01*
X579669Y134971D01*
X579688Y134981D01*
X579689Y134986D01*
X579693Y134989D01*
X579696Y135011D01*
X579701Y135032D01*
X579699Y135037D01*
X579700Y135041D01*
X579686Y135059D01*
X579675Y135078D01*
X579670Y135079D01*
X579668Y135083D01*
X553848Y149913D01*
X553826Y149916D01*
X553805Y149922D01*
X545235Y148699D01*
X533340Y155124D01*
X549361Y157408D01*
X549374Y157416D01*
X549389Y157419D01*
X549396Y157429D01*
X549406Y157435D01*
X549410Y157450D01*
X549418Y157462D01*
X564212Y229246D01*
X572281Y224912D01*
X568717Y221580D01*
X568709Y221561D01*
X568697Y221543D01*
X556107Y158462D01*
X556109Y158451D01*
X556106Y158439D01*
X556114Y158426D01*
X556117Y158411D01*
X556127Y158404D01*
X556133Y158394D01*
X556148Y158390D01*
X556161Y158381D01*
X556173Y158384D01*
X556184Y158381D01*
X572408Y160694D01*
X572421Y160702D01*
X572436Y160705D01*
X572443Y160715D01*
X572453Y160721D01*
X572457Y160735D01*
X572466Y160748D01*
X583471Y214381D01*
X591161Y215474D01*
X580255Y161906D01*
X580257Y161894D01*
X580255Y161882D01*
X580262Y161869D01*
X580265Y161854D01*
X580275Y161847D01*
X580281Y161837D01*
X580296Y161833D01*
X580309Y161825D01*
X580321Y161827D01*
X580332Y161824D01*
X596550Y164136D01*
X596563Y164144D01*
X596578Y164147D01*
X596585Y164157D01*
X596595Y164163D01*
X596599Y164177D01*
X596607Y164190D01*
X609755Y227329D01*
X609754Y227333D01*
X609756Y227337D01*
X609749Y227358D01*
X609745Y227381D01*
X609742Y227383D01*
X609741Y227387D01*
X603707Y234700D01*
X614991Y228648D01*
X614521Y228186D01*
X614513Y228167D01*
X614502Y228151D01*
X603483Y173682D01*
X603486Y173666D01*
X603484Y173650D01*
X603490Y173641D01*
X603493Y173631D01*
X603506Y173622D01*
X603517Y173608D01*
X615794Y166894D01*
X615816Y166891D01*
X615837Y166886D01*
X634586Y169559D01*
X634605Y169570D01*
X634625Y169578D01*
X644578Y179460D01*
X644586Y179478D01*
X644598Y179496D01*
X649768Y206332D01*
X655473Y203271D01*
X655497Y203269D01*
X655520Y203265D01*
X655522Y203266D01*
X655525Y203266D01*
X655544Y203281D01*
X655563Y203295D01*
X655564Y203298D01*
X655566Y203299D01*
X655568Y203323D01*
X655572Y203347D01*
X654718Y207203D01*
X654939Y207982D01*
X654938Y207997D01*
X654941Y208011D01*
X654935Y208022D01*
X654933Y208035D01*
X654922Y208044D01*
X654915Y208056D01*
X654902Y208059D01*
X654892Y208067D01*
X654878Y208065D01*
X654864Y208069D01*
X647232Y206983D01*
X640196Y210758D01*
X640186Y210759D01*
X640177Y210765D01*
X640160Y210762D01*
X640144Y210763D01*
X640136Y210757D01*
X640125Y210755D01*
X640116Y210741D01*
X640103Y210730D01*
X640102Y210720D01*
X640096Y210711D01*
X638943Y204972D01*
X629358Y203609D01*
X629345Y203601D01*
X629330Y203598D01*
X629323Y203588D01*
X629313Y203582D01*
X629309Y203567D01*
X629300Y203554D01*
X627542Y194639D01*
X627544Y194627D01*
X627541Y194616D01*
X627549Y194603D01*
X627552Y194587D01*
X627562Y194581D01*
X627568Y194571D01*
X627583Y194567D01*
X627596Y194558D01*
X627607Y194561D01*
X627619Y194557D01*
X631301Y195082D01*
X629751Y186535D01*
X621975Y185427D01*
X628803Y220825D01*
X637034Y221994D01*
X635022Y213435D01*
X635024Y213423D01*
X635021Y213410D01*
X635028Y213398D01*
X635031Y213384D01*
X635041Y213376D01*
X635048Y213365D01*
X635062Y213361D01*
X635073Y213353D01*
X635086Y213355D01*
X635099Y213352D01*
X651213Y215643D01*
X651226Y215651D01*
X651241Y215654D01*
X651247Y215664D01*
X651258Y215670D01*
X651262Y215685D01*
X651270Y215697D01*
X655068Y233867D01*
X655068Y233871D01*
X655070Y233875D01*
X655063Y233896D01*
X655059Y233918D01*
X655055Y233921D01*
X655053Y233925D01*
X648945Y241116D01*
X660750Y234796D01*
X662620Y232595D01*
X662627Y232591D01*
X662630Y232584D01*
X662649Y232579D01*
X662666Y232571D01*
X662674Y232573D01*
X662681Y232571D01*
X662698Y232581D01*
X662717Y232587D01*
X662720Y232594D01*
X662727Y232598D01*
X662732Y232616D01*
X662740Y232634D01*
X662738Y232641D01*
X662740Y232649D01*
X639677Y398867D01*
Y398867D01*
X639677Y398867D01*
X639677Y398868D01*
X639664Y398890D01*
X639651Y398913D01*
X639650Y398913D01*
X639650Y398913D01*
X639626Y398920D01*
X639600Y398927D01*
D02*
G37*
G36*
X664883Y216707D02*
X664870Y216699D01*
X664855Y216697D01*
X664848Y216687D01*
X664837Y216681D01*
X664834Y216666D01*
X664825Y216653D01*
X663280Y209267D01*
X657087Y208386D01*
X657084Y208384D01*
X657082Y208384D01*
X657062Y208371D01*
X657042Y208359D01*
X657041Y208356D01*
X657039Y208354D01*
X657034Y208331D01*
X657029Y208308D01*
X657030Y208305D01*
X657029Y208303D01*
X658498Y201675D01*
X658500Y201673D01*
X658499Y201670D01*
X658515Y201652D01*
X658528Y201632D01*
X658531Y201632D01*
X658533Y201630D01*
X661775Y199890D01*
X660437Y192950D01*
X660440Y192936D01*
X660438Y192922D01*
X667990Y158841D01*
X667997Y158831D01*
X668000Y158818D01*
X668012Y158810D01*
X668020Y158798D01*
X668033Y158796D01*
X668043Y158789D01*
X668058Y158791D01*
X668072Y158789D01*
X668083Y158796D01*
X668095Y158799D01*
X668103Y158811D01*
X668115Y158819D01*
X668117Y158832D01*
X668124Y158842D01*
X671009Y173028D01*
X671007Y173040D01*
X671010Y173051D01*
X664960Y216649D01*
X664952Y216662D01*
X664950Y216677D01*
X664940Y216684D01*
X664934Y216694D01*
X664919Y216698D01*
X664906Y216706D01*
X664894Y216704D01*
X664883Y216707D01*
D02*
G37*
G36*
X659264Y186497D02*
X659250Y186494D01*
X659236Y186496D01*
X659225Y186489D01*
X659212Y186486D01*
X659204Y186474D01*
X659193Y186466D01*
X659191Y186453D01*
X659183Y186442D01*
X656598Y173024D01*
X653384Y169833D01*
X653379Y169822D01*
X653371Y169814D01*
X653370Y169799D01*
X653364Y169785D01*
X653368Y169774D01*
X653368Y169762D01*
X664048Y139436D01*
X664054Y139429D01*
X664056Y139421D01*
X664071Y139410D01*
X664083Y139397D01*
X664092Y139396D01*
X664099Y139391D01*
X664117Y139395D01*
X664136Y139394D01*
X664142Y139400D01*
X664151Y139401D01*
X664161Y139417D01*
X664175Y139429D01*
X664175Y139438D01*
X664180Y139445D01*
X666834Y152497D01*
X666832Y152512D01*
X666834Y152526D01*
X659318Y186444D01*
X659310Y186455D01*
X659308Y186468D01*
X659296Y186475D01*
X659288Y186487D01*
X659275Y186489D01*
X659264Y186497D01*
D02*
G37*
G36*
X651366Y167801D02*
X651355Y167796D01*
X651343Y167797D01*
X651331Y167787D01*
X651317Y167781D01*
X649440Y165917D01*
X649434Y165905D01*
X649425Y165895D01*
X649425Y165881D01*
X649419Y165868D01*
X649424Y165856D01*
X649424Y165842D01*
X662723Y132908D01*
X662728Y132903D01*
X662729Y132896D01*
X662746Y132885D01*
X662759Y132871D01*
X662767Y132871D01*
X662773Y132867D01*
X662792Y132871D01*
X662812Y132870D01*
X662817Y132875D01*
X662824Y132877D01*
X662835Y132893D01*
X662850Y132907D01*
X662850Y132914D01*
X662854Y132920D01*
X663159Y134422D01*
X663156Y134440D01*
X663157Y134459D01*
X651430Y167755D01*
X651420Y167766D01*
X651414Y167780D01*
X651403Y167785D01*
X651395Y167794D01*
X651380Y167795D01*
X651366Y167801D01*
D02*
G37*
G36*
X610363Y165869D02*
X610346Y165866D01*
X610329Y165868D01*
X610321Y165861D01*
X610311Y165859D01*
X610302Y165845D01*
X610288Y165835D01*
X610287Y165824D01*
X610282Y165816D01*
X608600Y157738D01*
X605388Y157280D01*
X605369Y157269D01*
X605349Y157261D01*
X605347Y157256D01*
X605343Y157253D01*
X605337Y157232D01*
X605329Y157212D01*
X605331Y157207D01*
X605330Y157202D01*
X605341Y157183D01*
X605349Y157163D01*
X621925Y140457D01*
X621929Y140456D01*
X621932Y140451D01*
X621953Y140446D01*
X621973Y140437D01*
X621978Y140439D01*
X621982Y140438D01*
X627961Y141212D01*
X628976Y133371D01*
X628987Y133351D01*
X628996Y133331D01*
X655267Y106853D01*
X655267Y106853D01*
X655267Y106853D01*
X655288Y106844D01*
X655316Y106833D01*
X655316Y106833D01*
X655316Y106833D01*
X655334Y106840D01*
X655364Y106853D01*
X655364Y106853D01*
X655364Y106853D01*
X655365Y106854D01*
X655394Y106827D01*
X655790Y107309D01*
X655808Y107293D01*
X656367Y108022D01*
X656375Y108025D01*
X656379Y108033D01*
X656377Y108035D01*
X656377Y108035D01*
X656379Y108033D01*
X656382Y108041D01*
X657332Y109279D01*
X657256Y109325D01*
X657259Y109330D01*
X657270Y109350D01*
X657269Y109354D01*
X657270Y109357D01*
X657261Y109378D01*
X657255Y109401D01*
X612443Y164746D01*
X612431Y164753D01*
X612422Y164764D01*
X610382Y165863D01*
X610371Y165863D01*
X610363Y165869D01*
D02*
G37*
G36*
X648476Y164932D02*
X648464Y164927D01*
X648450Y164928D01*
X648441Y164918D01*
X648428Y164913D01*
X646672Y163169D01*
X639286Y162115D01*
X639276Y162109D01*
X639263Y162108D01*
X639254Y162096D01*
X639241Y162089D01*
X639238Y162076D01*
X639230Y162067D01*
X639232Y162052D01*
X639228Y162038D01*
X639235Y162027D01*
X639236Y162014D01*
X660701Y122939D01*
X660703Y122937D01*
X660704Y122934D01*
X660723Y122921D01*
X660742Y122906D01*
X660745Y122906D01*
X660747Y122905D01*
X660770Y122909D01*
X660794Y122912D01*
X660796Y122914D01*
X660799Y122915D01*
X660812Y122934D01*
X660827Y122953D01*
X660826Y122956D01*
X660828Y122958D01*
X662379Y130586D01*
X662375Y130605D01*
X662375Y130625D01*
X648540Y164890D01*
X648530Y164899D01*
X648525Y164912D01*
X648512Y164918D01*
X648503Y164927D01*
X648489Y164927D01*
X648476Y164932D01*
D02*
G37*
G36*
X615398Y163156D02*
X615384Y163152D01*
X615371Y163153D01*
X615360Y163145D01*
X615347Y163141D01*
X615341Y163129D01*
X615330Y163120D01*
X615329Y163106D01*
X615322Y163095D01*
X615326Y163081D01*
X615325Y163068D01*
X615333Y163057D01*
X615337Y163044D01*
X657797Y110603D01*
X657811Y110595D01*
X657822Y110584D01*
X657834Y110583D01*
X657843Y110578D01*
X657859Y110583D01*
X657875Y110582D01*
X657883Y110590D01*
X657894Y110593D01*
X657902Y110607D01*
X657913Y110618D01*
X658035Y110889D01*
X658035Y110890D01*
X658073Y110873D01*
X658214Y111137D01*
X658147Y111165D01*
X658261Y111441D01*
X658261Y111441D01*
X658491Y111997D01*
X658465Y112006D01*
X658471Y112016D01*
X658469Y112021D01*
X658472Y112027D01*
X658464Y112046D01*
X658459Y112067D01*
X624132Y159916D01*
X624123Y159922D01*
X624118Y159931D01*
X624101Y159935D01*
X624087Y159944D01*
X624077Y159942D01*
X624067Y159944D01*
X621937Y159641D01*
X615423Y163148D01*
X615410Y163149D01*
X615398Y163156D01*
D02*
G37*
G36*
X585520Y159165D02*
X585504Y159162D01*
X585487Y159163D01*
X585479Y159157D01*
X585469Y159155D01*
X585459Y159141D01*
X585446Y159130D01*
X585445Y159120D01*
X585439Y159111D01*
X585126Y157583D01*
X585128Y157572D01*
X585125Y157562D01*
X585133Y157547D01*
X585136Y157531D01*
X585145Y157525D01*
X585150Y157515D01*
X608420Y138703D01*
X608421Y138703D01*
X608421Y138702D01*
X608447Y138695D01*
X608470Y138688D01*
X608471Y138688D01*
X608472Y138688D01*
X620340Y140225D01*
X620359Y140236D01*
X620380Y140244D01*
X620382Y140249D01*
X620386Y140251D01*
X620392Y140273D01*
X620400Y140293D01*
X620398Y140297D01*
X620400Y140302D01*
X620388Y140321D01*
X620380Y140342D01*
X603823Y157029D01*
X603818Y157031D01*
X603815Y157035D01*
X603794Y157041D01*
X603774Y157049D01*
X603770Y157047D01*
X603764Y157048D01*
X592448Y155434D01*
X585539Y159158D01*
X585529Y159159D01*
X585520Y159165D01*
D02*
G37*
G36*
X562332Y155201D02*
X562315Y155198D01*
X562299Y155200D01*
X562291Y155193D01*
X562281Y155191D01*
X562271Y155177D01*
X562258Y155166D01*
X562257Y155156D01*
X562251Y155148D01*
X561868Y153290D01*
X561871Y153275D01*
X561868Y153260D01*
X561875Y153250D01*
X561878Y153238D01*
X561890Y153230D01*
X561899Y153218D01*
X589257Y136216D01*
X589280Y136212D01*
X589302Y136206D01*
X599355Y137508D01*
X599356Y137508D01*
X599356Y137508D01*
X599378Y137521D01*
X599400Y137534D01*
X599401Y137535D01*
X599401Y137535D01*
X599407Y137560D01*
X599414Y137585D01*
X599414Y137585D01*
X599414Y137586D01*
X599401Y137607D01*
X599388Y137630D01*
X599387Y137631D01*
X599387Y137631D01*
X578060Y153362D01*
X578034Y153368D01*
X578009Y153375D01*
X568292Y151988D01*
X562351Y155194D01*
X562341Y155195D01*
X562332Y155201D01*
D02*
G37*
G36*
X517911Y154214D02*
X517893Y154210D01*
X517875Y154211D01*
X517868Y154205D01*
X517860Y154204D01*
X517850Y154188D01*
X517836Y154176D01*
X517835Y154167D01*
X517831Y154160D01*
X516710Y148521D01*
X516714Y148502D01*
X516714Y148482D01*
X516719Y148477D01*
X516720Y148470D01*
X516736Y148459D01*
X516750Y148445D01*
X555625Y131855D01*
X555643Y131855D01*
X555661Y131850D01*
X562669Y132758D01*
X562675Y132761D01*
X562683Y132761D01*
X562697Y132774D01*
X562714Y132784D01*
X562716Y132791D01*
X562722Y132796D01*
X562723Y132816D01*
X562728Y132835D01*
X562724Y132841D01*
X562725Y132849D01*
X562711Y132863D01*
X562702Y132880D01*
X562694Y132882D01*
X562689Y132888D01*
X517927Y154209D01*
X517919Y154209D01*
X517911Y154214D01*
D02*
G37*
G36*
X584888Y156186D02*
X584873Y156179D01*
X584857Y156175D01*
X584851Y156166D01*
X584842Y156161D01*
X584837Y156145D01*
X584828Y156132D01*
X584450Y154293D01*
X581724Y153904D01*
X581724Y153904D01*
X581723Y153904D01*
X581702Y153891D01*
X581679Y153877D01*
X581679Y153877D01*
X581678Y153877D01*
X581672Y153852D01*
X581665Y153827D01*
X581666Y153826D01*
X581666Y153826D01*
X581679Y153804D01*
X581692Y153781D01*
X581693Y153781D01*
X581693Y153781D01*
X603076Y138009D01*
X603100Y138003D01*
X603125Y137996D01*
X606668Y138455D01*
X606690Y138468D01*
X606713Y138480D01*
X606713Y138480D01*
X606714Y138481D01*
X606720Y138505D01*
X606728Y138530D01*
X606727Y138531D01*
X606727Y138532D01*
X606715Y138554D01*
X606702Y138576D01*
X584938Y156171D01*
X584922Y156176D01*
X584909Y156185D01*
X584898Y156183D01*
X584888Y156186D01*
D02*
G37*
G36*
X561667Y151972D02*
X561652Y151970D01*
X561637Y151972D01*
X561627Y151965D01*
X561615Y151962D01*
X561606Y151950D01*
X561594Y151941D01*
X561592Y151929D01*
X561585Y151919D01*
X561397Y151005D01*
X558037Y150526D01*
X558033Y150523D01*
X558028Y150524D01*
X558011Y150510D01*
X557991Y150499D01*
X557990Y150494D01*
X557987Y150492D01*
X557984Y150470D01*
X557978Y150448D01*
X557981Y150444D01*
X557980Y150440D01*
X557994Y150422D01*
X558005Y150402D01*
X558009Y150401D01*
X558012Y150398D01*
X583910Y135522D01*
X583932Y135519D01*
X583954Y135514D01*
X587243Y135940D01*
X587246Y135941D01*
X587249Y135941D01*
X587268Y135954D01*
X587288Y135966D01*
X587289Y135969D01*
X587292Y135971D01*
X587296Y135994D01*
X587302Y136017D01*
X587300Y136020D01*
X587301Y136023D01*
X587287Y136042D01*
X587276Y136062D01*
X587272Y136063D01*
X587270Y136066D01*
X561689Y151964D01*
X561677Y151966D01*
X561667Y151972D01*
D02*
G37*
G36*
X629323Y131300D02*
X629319Y131298D01*
X629314Y131299D01*
X629295Y131288D01*
X629274Y131280D01*
X629272Y131275D01*
X629268Y131273D01*
X629263Y131251D01*
X629254Y131231D01*
X629256Y131227D01*
X629255Y131222D01*
X630606Y120792D01*
X630619Y120769D01*
X630631Y120747D01*
X651384Y103969D01*
X651405Y103963D01*
X651427Y103954D01*
X651430Y103956D01*
X651434Y103955D01*
X651454Y103966D01*
X651455Y103966D01*
X651466Y103943D01*
X652295Y104287D01*
X653014Y104838D01*
X653006Y104851D01*
X653016Y104836D01*
X654428Y105920D01*
X654413Y105937D01*
X654418Y105939D01*
X654418Y105939D01*
X654418Y105939D01*
X654426Y105958D01*
X654438Y105987D01*
X654438Y105987D01*
X654438Y105987D01*
X654428Y106012D01*
X654418Y106036D01*
X629372Y131279D01*
X629367Y131281D01*
X629365Y131285D01*
X629343Y131291D01*
X629323Y131300D01*
D02*
G37*
G36*
X630911Y118979D02*
X630911Y118979D01*
X630910Y118979D01*
X630887Y118966D01*
X630865Y118954D01*
X630865Y118953D01*
X630864Y118953D01*
X630857Y118928D01*
X630850Y118904D01*
X630851Y118903D01*
X630850Y118902D01*
X631044Y117406D01*
X631045Y117405D01*
X631045Y117404D01*
X631058Y117383D01*
X631071Y117360D01*
X631071Y117360D01*
X631072Y117359D01*
X649980Y103413D01*
X650005Y103406D01*
X650028Y103400D01*
X650030Y103400D01*
X650031Y103400D01*
X650053Y103413D01*
X650074Y103425D01*
X650075Y103426D01*
X650076Y103427D01*
X650082Y103451D01*
X650089Y103475D01*
X650089Y103477D01*
X650089Y103478D01*
X650076Y103499D01*
X650064Y103521D01*
X630962Y118964D01*
X630961Y118965D01*
X630961Y118965D01*
X630935Y118972D01*
X630911Y118979D01*
D02*
G37*
G36*
X629400Y115470D02*
X623997Y114770D01*
X623994Y114768D01*
X623991Y114769D01*
X623972Y114755D01*
X623952Y114744D01*
X623951Y114740D01*
X623948Y114738D01*
X623944Y114715D01*
X623938Y114693D01*
X623940Y114690D01*
X623939Y114686D01*
X623953Y114667D01*
X623964Y114647D01*
X623968Y114646D01*
X623970Y114643D01*
X643894Y102262D01*
X643916Y102258D01*
X643939Y102252D01*
X646673Y102606D01*
X646674Y102606D01*
X646674Y102606D01*
X646697Y102619D01*
X646719Y102632D01*
X646719Y102633D01*
X646720Y102633D01*
X646726Y102659D01*
X646732Y102683D01*
X646732Y102683D01*
X646732Y102684D01*
X646718Y102707D01*
X646706Y102728D01*
X646705Y102729D01*
X646705Y102729D01*
X629450Y115457D01*
X629425Y115463D01*
X629400Y115470D01*
D02*
G37*
G36*
X621938Y114503D02*
X620970Y114378D01*
X620965Y114375D01*
X620960Y114376D01*
X620943Y114362D01*
X620924Y114352D01*
X620923Y114347D01*
X620919Y114344D01*
X620916Y114322D01*
X620910Y114301D01*
X620913Y114297D01*
X620912Y114292D01*
X620925Y114274D01*
X620936Y114255D01*
X620941Y114254D01*
X620944Y114250D01*
X636403Y105371D01*
X636428Y105368D01*
X636452Y105364D01*
X636453Y105364D01*
X636455Y105364D01*
X636475Y105380D01*
X636495Y105394D01*
X636495Y105395D01*
X636496Y105396D01*
X636500Y105422D01*
X636504Y105446D01*
X636503Y105447D01*
X636503Y105449D01*
X636488Y105469D01*
X636473Y105489D01*
X621983Y114494D01*
X621961Y114497D01*
X621938Y114503D01*
D02*
G37*
G36*
X636500Y161718D02*
X625535Y160154D01*
X625521Y160145D01*
X625505Y160142D01*
X625499Y160132D01*
X625490Y160127D01*
X625485Y160111D01*
X625477Y160097D01*
X625479Y160086D01*
X625477Y160076D01*
X625485Y160062D01*
X625489Y160046D01*
X658808Y113601D01*
X658829Y113588D01*
X658850Y113574D01*
X658851Y113574D01*
X658852Y113573D01*
X658876Y113579D01*
X658901Y113584D01*
X658902Y113585D01*
X658904Y113585D01*
X658916Y113606D01*
X658931Y113627D01*
X660016Y118966D01*
X660012Y118989D01*
X660009Y119013D01*
X636570Y161683D01*
X636558Y161692D01*
X636551Y161705D01*
X636539Y161708D01*
X636529Y161716D01*
X636514Y161714D01*
X636500Y161718D01*
D02*
G37*
G36*
X616658Y113820D02*
X610489Y113021D01*
X610482Y113017D01*
X610475Y113017D01*
X610461Y113004D01*
X610443Y112994D01*
X610442Y112987D01*
X610436Y112982D01*
X610435Y112963D01*
X610430Y112944D01*
X610434Y112937D01*
X610433Y112929D01*
X610446Y112915D01*
X610456Y112898D01*
X610463Y112896D01*
X610468Y112890D01*
X635163Y101128D01*
X635182Y101127D01*
X635201Y101122D01*
X637930Y101475D01*
X637934Y101477D01*
X637939Y101477D01*
X637957Y101490D01*
X637976Y101501D01*
X637977Y101506D01*
X637981Y101509D01*
X637984Y101531D01*
X637990Y101552D01*
X637987Y101556D01*
X637988Y101561D01*
X637974Y101579D01*
X637963Y101598D01*
X637959Y101599D01*
X637956Y101603D01*
X616701Y113811D01*
X616680Y113814D01*
X616658Y113820D01*
D02*
G37*
G36*
X605681Y112398D02*
X602507Y111987D01*
X602499Y111983D01*
X602491Y111983D01*
X602477Y111970D01*
X602462Y111961D01*
X602459Y111952D01*
X602453Y111946D01*
X602453Y111928D01*
X602448Y111910D01*
X602452Y111902D01*
X602452Y111893D01*
X602465Y111880D01*
X602474Y111865D01*
X602483Y111862D01*
X602489Y111856D01*
X629382Y100379D01*
X629400Y100379D01*
X629418Y100374D01*
X630391Y100500D01*
X630398Y100504D01*
X630406Y100503D01*
X630420Y100517D01*
X630437Y100526D01*
X630439Y100534D01*
X630445Y100539D01*
X630446Y100558D01*
X630451Y100577D01*
X630447Y100584D01*
X630447Y100591D01*
X630434Y100606D01*
X630425Y100623D01*
X630417Y100625D01*
X630412Y100630D01*
X605719Y112392D01*
X605700Y112393D01*
X605681Y112398D01*
D02*
G37*
G36*
X599941Y111655D02*
X559730Y106448D01*
X559717Y106440D01*
X559703Y106438D01*
X559696Y106428D01*
X559685Y106422D01*
X559681Y106407D01*
X559672Y106396D01*
X559674Y106383D01*
X559671Y106371D01*
X559678Y106358D01*
X559680Y106344D01*
X559691Y106336D01*
X559697Y106325D01*
X559711Y106321D01*
X559723Y106313D01*
X600505Y96639D01*
X600518Y96641D01*
X600530Y96638D01*
X626852Y100042D01*
X626860Y100047D01*
X626869Y100047D01*
X626882Y100059D01*
X626897Y100069D01*
X626900Y100077D01*
X626906Y100084D01*
X626906Y100102D01*
X626911Y100119D01*
X626907Y100127D01*
X626907Y100136D01*
X626894Y100149D01*
X626885Y100165D01*
X626876Y100167D01*
X626870Y100174D01*
X599977Y111650D01*
X599959Y111650D01*
X599941Y111655D01*
D02*
G37*
G36*
X475591Y95551D02*
X475583Y95548D01*
X475575Y95551D01*
X422671Y88700D01*
X422653Y88690D01*
X422633Y88682D01*
X422631Y88677D01*
X422625Y88674D01*
X422620Y88654D01*
X422611Y88635D01*
X422613Y88629D01*
X422612Y88623D01*
X422622Y88605D01*
X422629Y88585D01*
X422635Y88583D01*
X422638Y88577D01*
X422658Y88572D01*
X422677Y88563D01*
X509185Y84825D01*
X509191Y84827D01*
X509197Y84825D01*
X540882Y88923D01*
X540898Y88933D01*
X540916Y88939D01*
X540920Y88946D01*
X540927Y88950D01*
X540932Y88968D01*
X540941Y88985D01*
X540939Y88993D01*
X540941Y89000D01*
X540932Y89017D01*
X540926Y89035D01*
X540919Y89039D01*
X540915Y89046D01*
X540896Y89051D01*
X540880Y89060D01*
X475591Y95551D01*
D02*
G37*
G36*
X556044Y105971D02*
X527645Y102293D01*
X527630Y102285D01*
X527613Y102281D01*
X527608Y102272D01*
X527599Y102267D01*
X527595Y102250D01*
X527586Y102236D01*
X527588Y102226D01*
X527586Y102216D01*
X527594Y102201D01*
X527598Y102185D01*
X527607Y102179D01*
X527612Y102171D01*
X527629Y102166D01*
X527643Y102157D01*
X579600Y93934D01*
X579610Y93936D01*
X579619Y93933D01*
X596842Y96161D01*
X596855Y96168D01*
X596870Y96171D01*
X596877Y96181D01*
X596888Y96187D01*
X596892Y96201D01*
X596900Y96213D01*
X596898Y96226D01*
X596902Y96238D01*
X596894Y96251D01*
X596892Y96265D01*
X596882Y96273D01*
X596875Y96284D01*
X596861Y96287D01*
X596849Y96296D01*
X556069Y105969D01*
X556057Y105967D01*
X556044Y105971D01*
D02*
G37*
G36*
X518382Y101094D02*
X487118Y97045D01*
X487101Y97036D01*
X487083Y97030D01*
X487079Y97023D01*
X487072Y97019D01*
X487067Y97001D01*
X487058Y96984D01*
X487060Y96976D01*
X487058Y96968D01*
X487068Y96952D01*
X487073Y96934D01*
X487080Y96930D01*
X487084Y96923D01*
X487103Y96918D01*
X487119Y96909D01*
X552416Y90417D01*
X552424Y90419D01*
X552431Y90417D01*
X570351Y92735D01*
X570366Y92743D01*
X570383Y92747D01*
X570388Y92756D01*
X570397Y92761D01*
X570401Y92778D01*
X570410Y92792D01*
X570408Y92802D01*
X570410Y92812D01*
X570402Y92827D01*
X570398Y92843D01*
X570389Y92849D01*
X570384Y92857D01*
X570368Y92862D01*
X570353Y92871D01*
X518402Y101093D01*
X518392Y101091D01*
X518382Y101094D01*
D02*
G37*
G36*
X95327Y100210D02*
X95307Y100203D01*
X95286Y100199D01*
X95283Y100194D01*
X95278Y100192D01*
X95268Y100173D01*
X95257Y100155D01*
X93760Y92795D01*
X93761Y92789D01*
X93759Y92783D01*
X93766Y92764D01*
X93770Y92743D01*
X93775Y92740D01*
X93778Y92734D01*
X93797Y92725D01*
X93814Y92714D01*
X93820Y92715D01*
X93826Y92712D01*
X225602Y89113D01*
X225608Y89115D01*
X225613Y89114D01*
X256476Y93110D01*
X256494Y93120D01*
X256514Y93128D01*
X256516Y93133D01*
X256522Y93136D01*
X256527Y93156D01*
X256536Y93175D01*
X256534Y93181D01*
X256536Y93187D01*
X256525Y93205D01*
X256518Y93225D01*
X256512Y93227D01*
X256509Y93233D01*
X256489Y93238D01*
X256470Y93247D01*
X179744Y96562D01*
X179737Y96560D01*
X179731Y96562D01*
X168675Y94985D01*
X164619Y97209D01*
X164603Y97211D01*
X164589Y97217D01*
X95327Y100210D01*
D02*
G37*
G36*
X407419Y86724D02*
X407413Y86722D01*
X407407Y86723D01*
X391849Y84709D01*
X391831Y84698D01*
X391811Y84691D01*
X391808Y84685D01*
X391804Y84683D01*
X391798Y84662D01*
X391789Y84643D01*
X391791Y84637D01*
X391790Y84632D01*
X391800Y84613D01*
X391808Y84593D01*
X391813Y84591D01*
X391816Y84586D01*
X391837Y84581D01*
X391856Y84572D01*
X487112Y81970D01*
X487118Y81972D01*
X487123Y81971D01*
X493918Y82849D01*
X493936Y82860D01*
X493956Y82867D01*
X493959Y82872D01*
X493964Y82875D01*
X493969Y82896D01*
X493978Y82914D01*
X493976Y82920D01*
X493978Y82926D01*
X493967Y82944D01*
X493960Y82964D01*
X493955Y82967D01*
X493951Y82972D01*
X493931Y82977D01*
X493912Y82986D01*
X407419Y86724D01*
D02*
G37*
G36*
X383463Y83622D02*
X383458Y83620D01*
X383452Y83622D01*
X267152Y68562D01*
X267132Y68550D01*
X267111Y68541D01*
X267110Y68537D01*
X267106Y68535D01*
X267100Y68513D01*
X267092Y68492D01*
X267093Y68489D01*
X267092Y68485D01*
X267104Y68465D01*
X267113Y68444D01*
X267117Y68443D01*
X267119Y68439D01*
X267141Y68433D01*
X267162Y68425D01*
X402808Y71066D01*
X402812Y71068D01*
X402816Y71067D01*
X478718Y80884D01*
X478736Y80894D01*
X478756Y80902D01*
X478758Y80907D01*
X478763Y80910D01*
X478769Y80930D01*
X478778Y80950D01*
X478775Y80955D01*
X478777Y80960D01*
X478766Y80979D01*
X478759Y80999D01*
X478754Y81001D01*
X478751Y81006D01*
X478730Y81012D01*
X478711Y81020D01*
X383463Y83622D01*
D02*
G37*
G36*
X93563Y91540D02*
X93544Y91533D01*
X93523Y91529D01*
X93520Y91524D01*
X93514Y91522D01*
X93505Y91503D01*
X93494Y91485D01*
X88113Y65021D01*
X88115Y65014D01*
X88112Y65006D01*
X88120Y64989D01*
X88123Y64970D01*
X88130Y64965D01*
X88133Y64958D01*
X88151Y64951D01*
X88167Y64940D01*
X88175Y64942D01*
X88182Y64939D01*
X102950Y65227D01*
X102953Y65228D01*
X102957Y65227D01*
X102977Y65239D01*
X102998Y65248D01*
X102999Y65251D01*
X103003Y65253D01*
X103009Y65276D01*
X103017Y65297D01*
X103015Y65300D01*
X103017Y65304D01*
X102007Y73109D01*
X103251Y73270D01*
D01*
X103251D01*
X217214Y88026D01*
X217233Y88037D01*
X217253Y88045D01*
X217255Y88050D01*
X217260Y88052D01*
X217266Y88073D01*
X217274Y88092D01*
X217272Y88098D01*
X217274Y88103D01*
X217263Y88122D01*
X217255Y88142D01*
X217250Y88144D01*
X217248Y88149D01*
X217227Y88154D01*
X217208Y88163D01*
X93563Y91540D01*
D02*
G37*
G36*
X390825Y69654D02*
X255195Y67013D01*
X255191Y67011D01*
X255188Y67012D01*
X192339Y58874D01*
X192318Y58862D01*
X192297Y58852D01*
X192296Y58849D01*
X192293Y58848D01*
X192287Y58825D01*
X192279Y58803D01*
X192280Y58800D01*
X192279Y58797D01*
X192291Y58776D01*
X192301Y58755D01*
X192304Y58754D01*
X192306Y58751D01*
X192328Y58745D01*
X192350Y58737D01*
X354518Y64820D01*
X354521Y64822D01*
X354524Y64821D01*
X390835Y69517D01*
X390855Y69529D01*
X390876Y69538D01*
X390877Y69541D01*
X390881Y69543D01*
X390887Y69566D01*
X390895Y69587D01*
X390894Y69590D01*
X390895Y69594D01*
X390883Y69614D01*
X390874Y69635D01*
X390870Y69636D01*
X390868Y69640D01*
X390846Y69646D01*
X390825Y69654D01*
D02*
G37*
G36*
X103117Y64051D02*
X87910Y63755D01*
X87893Y63747D01*
X87874Y63744D01*
X87870Y63737D01*
X87862Y63734D01*
X87855Y63716D01*
X87844Y63700D01*
X86042Y54834D01*
X86044Y54826D01*
X86040Y54818D01*
X86048Y54801D01*
X86052Y54783D01*
X86059Y54778D01*
X86062Y54770D01*
X86080Y54764D01*
X86096Y54753D01*
X86104Y54755D01*
X86112Y54752D01*
X104218Y55431D01*
X104221Y55432D01*
X104225Y55431D01*
X104245Y55443D01*
X104266Y55453D01*
X104267Y55456D01*
X104270Y55458D01*
X104276Y55480D01*
X104284Y55502D01*
X104283Y55505D01*
X104284Y55508D01*
X103187Y63991D01*
X103175Y64011D01*
X103166Y64032D01*
X103162Y64033D01*
X103160Y64037D01*
X103138Y64043D01*
X103117Y64051D01*
D02*
G37*
G36*
X325815Y61246D02*
X163696Y55165D01*
X163693Y55163D01*
X163690Y55164D01*
X105307Y47604D01*
X104623Y52886D01*
X104612Y52906D01*
X104602Y52928D01*
X104599Y52929D01*
X104597Y52932D01*
X104574Y52938D01*
X104552Y52946D01*
X85567Y52234D01*
X85550Y52226D01*
X85531Y52223D01*
X85527Y52215D01*
X85519Y52212D01*
X85512Y52194D01*
X85502Y52179D01*
X83595Y42798D01*
X83596Y42791D01*
X83593Y42784D01*
X83601Y42766D01*
X83605Y42746D01*
X83611Y42742D01*
X83613Y42736D01*
X83632Y42728D01*
X83648Y42717D01*
X83649Y42717D01*
X83631Y42617D01*
X84713Y42474D01*
X86143Y41882D01*
X86159Y41923D01*
X86473Y41828D01*
X88466Y40763D01*
X88523Y40857D01*
X88533Y40854D01*
X88556Y40844D01*
X88558Y40845D01*
X88560Y40844D01*
X241033Y50143D01*
X241035Y50144D01*
X241038Y50143D01*
X325827Y61109D01*
X325847Y61121D01*
X325868Y61131D01*
X325869Y61134D01*
X325872Y61136D01*
X325878Y61158D01*
X325886Y61180D01*
X325885Y61183D01*
X325886Y61186D01*
X325874Y61207D01*
X325865Y61228D01*
X325862Y61229D01*
X325860Y61232D01*
X325837Y61238D01*
X325815Y61246D01*
D02*
G37*
G36*
X625727Y138394D02*
X104884Y70950D01*
X104838Y70923D01*
X104824Y70873D01*
X107467Y50481D01*
X107493Y50435D01*
X107544Y50422D01*
X628387Y117870D01*
X628433Y117896D01*
X628446Y117947D01*
X625804Y138335D01*
X625778Y138380D01*
X625727Y138394D01*
D02*
G37*
G36*
X202459Y45292D02*
X91792Y38543D01*
X91781Y38558D01*
X91764Y38542D01*
X91685Y38537D01*
X91664Y38526D01*
X91641Y38517D01*
X91640Y38515D01*
X91638Y38514D01*
X91630Y38491D01*
X91621Y38468D01*
X91622Y38466D01*
X91621Y38464D01*
X91632Y38442D01*
X91641Y38420D01*
X91599Y38379D01*
X93400Y36184D01*
X94784Y33596D01*
X95460Y31367D01*
X95557Y31390D01*
X95564Y31377D01*
X95572Y31357D01*
X95577Y31355D01*
X95579Y31351D01*
X95600Y31345D01*
X95621Y31337D01*
X95625Y31338D01*
X95630Y31337D01*
X202472Y45155D01*
X202493Y45167D01*
X202514Y45178D01*
X202515Y45180D01*
X202517Y45182D01*
X202524Y45205D01*
X202532Y45228D01*
X202530Y45230D01*
X202531Y45232D01*
X202519Y45254D01*
X202509Y45275D01*
X202506Y45276D01*
X202505Y45278D01*
X202481Y45284D01*
X202459Y45292D01*
D02*
G37*
G36*
X80896Y36030D02*
X80896Y36030D01*
X80896Y36030D01*
X78791Y35753D01*
X76830Y34941D01*
X75146Y33649D01*
X73854Y31965D01*
X73042Y30004D01*
X72765Y27899D01*
X72765Y27899D01*
X72765Y27899D01*
X73042Y25794D01*
X73854Y23833D01*
X75146Y22150D01*
X76830Y20857D01*
X78791Y20045D01*
X80896Y19768D01*
X80896Y19768D01*
X80896Y19768D01*
X83000Y20045D01*
X84962Y20857D01*
X86645Y22150D01*
X87938Y23833D01*
X88750Y25794D01*
X89027Y27899D01*
X89027Y27899D01*
X89027Y27899D01*
X88750Y30004D01*
X87938Y31965D01*
X86645Y33649D01*
X84962Y34941D01*
X83000Y35753D01*
X80896Y36030D01*
D02*
G37*
%LPD*%
G36*
X654676Y391235D02*
X654681Y391221D01*
X654681Y391206D01*
X654690Y391197D01*
X654694Y391185D01*
X654707Y391179D01*
X654718Y391169D01*
X654730Y391168D01*
X654742Y391163D01*
X654755Y391168D01*
X654770Y391168D01*
X657656Y392326D01*
X658432Y390043D01*
X655476Y389240D01*
X655466Y389232D01*
X655453Y389229D01*
X655446Y389216D01*
X655434Y389207D01*
X655433Y389195D01*
X655426Y389184D01*
X655429Y389170D01*
X655428Y389155D01*
X655435Y389145D01*
X655439Y389133D01*
X657263Y386645D01*
X655367Y385251D01*
X653615Y387879D01*
X653604Y387886D01*
X653596Y387898D01*
X653583Y387900D01*
X653571Y387908D01*
X653558Y387905D01*
X653544Y387908D01*
X653533Y387900D01*
X653520Y387898D01*
X653512Y387886D01*
X653501Y387879D01*
X651725Y385227D01*
X649827Y386621D01*
X651675Y389133D01*
X651678Y389146D01*
X651686Y389156D01*
X651684Y389170D01*
X651688Y389184D01*
X651681Y389195D01*
X651679Y389208D01*
X651668Y389217D01*
X651661Y389229D01*
X651647Y389232D01*
X651637Y389240D01*
X648610Y390020D01*
X649410Y392326D01*
X652346Y391168D01*
X652360Y391168D01*
X652374Y391163D01*
X652385Y391168D01*
X652398Y391169D01*
X652408Y391179D01*
X652422Y391185D01*
X652426Y391197D01*
X652435Y391207D01*
X652435Y391221D01*
X652440Y391235D01*
X652297Y394406D01*
X654817D01*
X654676Y391235D01*
D02*
G37*
G36*
X672097Y302468D02*
X672102Y302454D01*
X672102Y302439D01*
X672111Y302430D01*
X672115Y302419D01*
X672129Y302412D01*
X672139Y302402D01*
X672151Y302402D01*
X672163Y302396D01*
X672177Y302402D01*
X672191Y302401D01*
X675078Y303559D01*
X675853Y301276D01*
X672897Y300473D01*
X672887Y300465D01*
X672874Y300462D01*
X672867Y300450D01*
X672855Y300441D01*
X672854Y300428D01*
X672847Y300417D01*
X672851Y300403D01*
X672849Y300389D01*
X672857Y300379D01*
X672860Y300366D01*
X674684Y297878D01*
X672788Y296485D01*
X671036Y299112D01*
X671025Y299120D01*
X671017Y299131D01*
X671004Y299134D01*
X670992Y299141D01*
X670979Y299139D01*
X670966Y299141D01*
X670954Y299134D01*
X670941Y299131D01*
X670933Y299120D01*
X670922Y299112D01*
X669146Y296461D01*
X667248Y297854D01*
X669096Y300366D01*
X669099Y300379D01*
X669108Y300390D01*
X669106Y300403D01*
X669109Y300417D01*
X669102Y300429D01*
X669100Y300442D01*
X669089Y300450D01*
X669082Y300462D01*
X669069Y300465D01*
X669058Y300473D01*
X666031Y301253D01*
X666831Y303560D01*
X669767Y302401D01*
X669781Y302401D01*
X669795Y302396D01*
X669807Y302402D01*
X669819Y302402D01*
X669830Y302413D01*
X669843Y302419D01*
X669847Y302431D01*
X669856Y302440D01*
X669856Y302454D01*
X669861Y302468D01*
X669718Y305640D01*
X672238D01*
X672097Y302468D01*
D02*
G37*
G36*
X667988Y280908D02*
X668008Y280859D01*
X668057Y280839D01*
X672698D01*
Y278399D01*
X668057D01*
X668008Y278379D01*
X667988Y278330D01*
Y273659D01*
X665546D01*
Y278330D01*
X665526Y278379D01*
X665477Y278399D01*
X660836D01*
Y280839D01*
X665477D01*
X665526Y280859D01*
X665546Y280908D01*
Y285578D01*
X667988D01*
Y280908D01*
D02*
G37*
G36*
X553046Y362993D02*
X553067Y362944D01*
X553115Y362924D01*
X558934D01*
Y359840D01*
X553115D01*
X553067Y359820D01*
X553046Y359771D01*
Y353915D01*
X549959D01*
Y359771D01*
X549939Y359820D01*
X549891Y359840D01*
X544072D01*
Y362924D01*
X549891D01*
X549939Y362944D01*
X549959Y362993D01*
Y368848D01*
X553046D01*
Y362993D01*
D02*
G37*
G36*
X293356Y341621D02*
X293377Y341573D01*
X293425Y341553D01*
X298067D01*
Y339113D01*
X293425D01*
X293377Y339093D01*
X293356Y339044D01*
Y334373D01*
X290914D01*
Y339044D01*
X290894Y339093D01*
X290846Y339113D01*
X286204D01*
Y341553D01*
X290846D01*
X290894Y341573D01*
X290914Y341621D01*
Y346292D01*
X293356D01*
Y341621D01*
D02*
G37*
G36*
X414461Y328981D02*
X414466Y328967D01*
X414466Y328952D01*
X414475Y328943D01*
X414479Y328931D01*
X414492Y328925D01*
X414503Y328914D01*
X414515Y328914D01*
X414527Y328909D01*
X414541Y328914D01*
X414556Y328914D01*
X417442Y330072D01*
X418217Y327789D01*
X415261Y326986D01*
X415251Y326978D01*
X415238Y326975D01*
X415231Y326962D01*
X415219Y326953D01*
X415218Y326941D01*
X415211Y326930D01*
X415215Y326916D01*
X415213Y326901D01*
X415221Y326891D01*
X415224Y326879D01*
X417048Y324391D01*
X415152Y322997D01*
X413400Y325625D01*
X413389Y325632D01*
X413381Y325644D01*
X413368Y325646D01*
X413357Y325654D01*
X413343Y325651D01*
X413330Y325654D01*
X413318Y325646D01*
X413305Y325644D01*
X413297Y325632D01*
X413286Y325625D01*
X411510Y322973D01*
X409612Y324367D01*
X411460Y326879D01*
X411463Y326891D01*
X411471Y326902D01*
X411469Y326916D01*
X411473Y326930D01*
X411466Y326941D01*
X411464Y326954D01*
X411453Y326963D01*
X411446Y326975D01*
X411433Y326978D01*
X411422Y326986D01*
X408395Y327766D01*
X409195Y330072D01*
X412131Y328914D01*
X412146Y328914D01*
X412159Y328909D01*
X412171Y328914D01*
X412183Y328915D01*
X412194Y328925D01*
X412207Y328931D01*
X412211Y328943D01*
X412220Y328952D01*
X412220Y328967D01*
X412225Y328981D01*
X412082Y332152D01*
X414602D01*
X414461Y328981D01*
D02*
G37*
G36*
X396638Y337538D02*
X396658Y337489D01*
X396706Y337469D01*
X402525D01*
Y334385D01*
X396706D01*
X396658Y334365D01*
X396638Y334316D01*
Y328460D01*
X393550D01*
Y334316D01*
X393530Y334365D01*
X393482Y334385D01*
X387663D01*
Y337469D01*
X393482D01*
X393530Y337489D01*
X393550Y337538D01*
Y343393D01*
X396638D01*
Y337538D01*
D02*
G37*
G36*
X530752Y320898D02*
X530757Y320884D01*
X530757Y320869D01*
X530765Y320860D01*
X530770Y320848D01*
X530783Y320842D01*
X530793Y320832D01*
X530806Y320831D01*
X530817Y320826D01*
X530831Y320831D01*
X530846Y320831D01*
X533732Y321989D01*
X534507Y319706D01*
X531552Y318903D01*
X531542Y318895D01*
X531529Y318892D01*
X531522Y318879D01*
X531510Y318871D01*
X531508Y318858D01*
X531502Y318847D01*
X531505Y318833D01*
X531503Y318818D01*
X531511Y318808D01*
X531514Y318796D01*
X533339Y316308D01*
X531443Y314914D01*
X529691Y317542D01*
X529679Y317549D01*
X529672Y317561D01*
X529658Y317563D01*
X529647Y317571D01*
X529634Y317568D01*
X529620Y317571D01*
X529609Y317563D01*
X529595Y317561D01*
X529588Y317549D01*
X529576Y317542D01*
X527801Y314890D01*
X525903Y316284D01*
X527751Y318796D01*
X527754Y318809D01*
X527762Y318819D01*
X527760Y318833D01*
X527763Y318847D01*
X527757Y318858D01*
X527755Y318871D01*
X527743Y318880D01*
X527736Y318892D01*
X527723Y318895D01*
X527713Y318903D01*
X524686Y319683D01*
X525485Y321990D01*
X528422Y320831D01*
X528436Y320831D01*
X528450Y320826D01*
X528461Y320831D01*
X528474Y320832D01*
X528484Y320842D01*
X528497Y320848D01*
X528502Y320860D01*
X528511Y320870D01*
X528510Y320884D01*
X528515Y320898D01*
X528373Y324069D01*
X530893D01*
X530752Y320898D01*
D02*
G37*
G36*
X619188Y318309D02*
X619209Y318261D01*
X619257Y318241D01*
X623899D01*
Y315801D01*
X619257D01*
X619209Y315781D01*
X619188Y315732D01*
Y311061D01*
X616746D01*
Y315732D01*
X616726Y315781D01*
X616678Y315801D01*
X612036D01*
Y318241D01*
X616678D01*
X616726Y318261D01*
X616746Y318309D01*
Y322980D01*
X619188D01*
Y318309D01*
D02*
G37*
G36*
X262998Y302468D02*
X263003Y302454D01*
X263003Y302439D01*
X263012Y302430D01*
X263016Y302419D01*
X263029Y302412D01*
X263040Y302402D01*
X263052Y302402D01*
X263064Y302396D01*
X263078Y302402D01*
X263092Y302401D01*
X265978Y303559D01*
X266754Y301276D01*
X263798Y300473D01*
X263788Y300465D01*
X263775Y300462D01*
X263768Y300450D01*
X263756Y300441D01*
X263755Y300428D01*
X263748Y300417D01*
X263752Y300403D01*
X263750Y300389D01*
X263757Y300379D01*
X263761Y300366D01*
X265585Y297878D01*
X263689Y296485D01*
X261937Y299112D01*
X261926Y299120D01*
X261918Y299131D01*
X261905Y299134D01*
X261893Y299141D01*
X261880Y299139D01*
X261866Y299141D01*
X261855Y299134D01*
X261842Y299131D01*
X261834Y299120D01*
X261823Y299112D01*
X260047Y296461D01*
X258149Y297854D01*
X259997Y300366D01*
X260000Y300379D01*
X260008Y300390D01*
X260006Y300403D01*
X260010Y300417D01*
X260003Y300429D01*
X260001Y300442D01*
X259990Y300450D01*
X259982Y300462D01*
X259970Y300465D01*
X259959Y300473D01*
X256932Y301253D01*
X257732Y303560D01*
X260668Y302401D01*
X260682Y302401D01*
X260696Y302396D01*
X260708Y302402D01*
X260720Y302402D01*
X260730Y302413D01*
X260744Y302419D01*
X260748Y302431D01*
X260757Y302440D01*
X260757Y302454D01*
X260762Y302468D01*
X260619Y305640D01*
X263139D01*
X262998Y302468D01*
D02*
G37*
G36*
X451307Y287740D02*
X451327Y287691D01*
X451375Y287671D01*
X456017D01*
Y285231D01*
X451375D01*
X451327Y285211D01*
X451307Y285163D01*
Y280492D01*
X448865D01*
Y285163D01*
X448844Y285211D01*
X448796Y285231D01*
X444154D01*
Y287671D01*
X448796D01*
X448844Y287691D01*
X448865Y287740D01*
Y292411D01*
X451307D01*
Y287740D01*
D02*
G37*
G36*
X152435D02*
X152455Y287691D01*
X152503Y287671D01*
X157145D01*
Y285231D01*
X152503D01*
X152455Y285211D01*
X152435Y285163D01*
Y280492D01*
X149992D01*
Y285163D01*
X149972Y285211D01*
X149924Y285231D01*
X145282D01*
Y287671D01*
X149924D01*
X149972Y287691D01*
X149992Y287740D01*
Y292411D01*
X152435D01*
Y287740D01*
D02*
G37*
G36*
X259884Y279094D02*
X258392Y271780D01*
X253128Y264272D01*
X250601Y270633D01*
X253158Y282730D01*
X259884Y279094D01*
D02*
G37*
G36*
X530752Y254244D02*
X530757Y254230D01*
X530757Y254215D01*
X530765Y254206D01*
X530770Y254194D01*
X530783Y254188D01*
X530793Y254177D01*
X530806Y254177D01*
X530817Y254172D01*
X530831Y254177D01*
X530846Y254177D01*
X533732Y255335D01*
X534507Y253051D01*
X531552Y252248D01*
X531542Y252241D01*
X531529Y252237D01*
X531522Y252225D01*
X531510Y252216D01*
X531508Y252203D01*
X531502Y252192D01*
X531505Y252178D01*
X531503Y252164D01*
X531511Y252154D01*
X531514Y252141D01*
X533339Y249653D01*
X531443Y248260D01*
X529691Y250887D01*
X529679Y250895D01*
X529672Y250906D01*
X529658Y250909D01*
X529647Y250917D01*
X529634Y250914D01*
X529620Y250917D01*
X529609Y250909D01*
X529595Y250906D01*
X529588Y250895D01*
X529576Y250888D01*
X527801Y248236D01*
X525903Y249630D01*
X527751Y252141D01*
X527754Y252154D01*
X527762Y252165D01*
X527760Y252179D01*
X527763Y252192D01*
X527757Y252204D01*
X527755Y252217D01*
X527743Y252225D01*
X527736Y252237D01*
X527723Y252241D01*
X527713Y252249D01*
X524686Y253029D01*
X525485Y255335D01*
X528422Y254177D01*
X528436Y254177D01*
X528450Y254172D01*
X528461Y254177D01*
X528474Y254177D01*
X528484Y254188D01*
X528497Y254194D01*
X528502Y254206D01*
X528511Y254215D01*
X528510Y254230D01*
X528515Y254244D01*
X528373Y257415D01*
X530893D01*
X530752Y254244D01*
D02*
G37*
G36*
X235994Y276529D02*
X233130Y262508D01*
X233134Y262488D01*
X233134Y262467D01*
X236454Y254812D01*
X214645Y251712D01*
X214632Y251705D01*
X214618Y251703D01*
X214611Y251692D01*
X214599Y251685D01*
X214596Y251672D01*
X214587Y251660D01*
X214514Y251351D01*
X200637Y249379D01*
X202720Y258097D01*
X226846Y261523D01*
X226859Y261531D01*
X226875Y261534D01*
X226881Y261544D01*
X226891Y261550D01*
X226895Y261565D01*
X226904Y261578D01*
X230479Y279514D01*
X235994Y276529D01*
D02*
G37*
G36*
X389884Y250274D02*
X381675Y249104D01*
X389025Y284554D01*
X397234Y285720D01*
X389884Y250274D01*
D02*
G37*
G36*
X161149Y243767D02*
X153343Y242657D01*
X154881Y251304D01*
X163234Y252490D01*
X161149Y243767D01*
D02*
G37*
G36*
X295415Y236812D02*
X287183Y235639D01*
X294525Y271134D01*
X302757Y272303D01*
X295415Y236812D01*
D02*
G37*
G36*
X420862Y298386D02*
X427154Y290875D01*
X426174Y286085D01*
X426176Y286074D01*
X426173Y286064D01*
X426181Y286050D01*
X426184Y286033D01*
X426193Y286027D01*
X426198Y286018D01*
X500483Y225963D01*
X498891Y225735D01*
X425988Y284673D01*
X425972Y284678D01*
X425958Y284687D01*
X425947Y284685D01*
X425937Y284688D01*
X425923Y284680D01*
X425906Y284677D01*
X425900Y284668D01*
X425891Y284663D01*
X425886Y284647D01*
X425877Y284633D01*
X423056Y270840D01*
X423059Y270828D01*
X423056Y270816D01*
X423064Y270803D01*
X423066Y270789D01*
X423077Y270782D01*
X423083Y270771D01*
X486546Y223961D01*
X483030Y223456D01*
X422583Y268041D01*
X422569Y268044D01*
X422556Y268053D01*
X422544Y268050D01*
X422532Y268053D01*
X422519Y268045D01*
X422505Y268043D01*
X422498Y268032D01*
X422487Y268026D01*
X422484Y268011D01*
X422475Y267999D01*
X417379Y243082D01*
X417382Y243067D01*
X417380Y243053D01*
X417387Y243043D01*
X417389Y243031D01*
X417402Y243022D01*
X417411Y243010D01*
X455290Y219470D01*
X453481Y219210D01*
X417202Y241755D01*
X417190Y241757D01*
X417180Y241764D01*
X417165Y241761D01*
X417151Y241763D01*
X417141Y241756D01*
X417128Y241754D01*
X417120Y241742D01*
X417108Y241733D01*
X417106Y241721D01*
X417099Y241710D01*
X416080Y236728D01*
X413079Y233747D01*
X413075Y233738D01*
X413068Y233733D01*
X413065Y233715D01*
X413058Y233699D01*
X413062Y233690D01*
X413061Y233680D01*
X413072Y233666D01*
X413078Y233650D01*
X413087Y233646D01*
X413093Y233639D01*
X441268Y217455D01*
X437263Y216879D01*
X411225Y231835D01*
X411208Y231838D01*
X411191Y231845D01*
X411183Y231841D01*
X411173Y231842D01*
X411159Y231831D01*
X411143Y231825D01*
X406189Y226906D01*
X379422Y223081D01*
X379415Y223078D01*
X379408Y223078D01*
X379394Y223065D01*
X379376Y223055D01*
X379375Y223048D01*
X379369Y223043D01*
X379368Y223023D01*
X379363Y223004D01*
X379367Y222997D01*
X379366Y222990D01*
X379380Y222975D01*
X379390Y222958D01*
X379397Y222957D01*
X379402Y222951D01*
X402605Y211899D01*
X398152Y211259D01*
X374757Y222403D01*
X374737Y222404D01*
X374717Y222409D01*
X373815Y222280D01*
X367747Y225559D01*
X367736Y225560D01*
X367728Y225566D01*
X367711Y225563D01*
X367694Y225564D01*
X367686Y225558D01*
X367676Y225556D01*
X367667Y225542D01*
X367653Y225531D01*
X367652Y225521D01*
X367647Y225513D01*
X366764Y221273D01*
X351522Y219095D01*
X351515Y219090D01*
X351506Y219090D01*
X351493Y219077D01*
X351477Y219068D01*
X351474Y219060D01*
X351468Y219053D01*
X351468Y219035D01*
X351464Y219017D01*
X351468Y219009D01*
X351468Y219001D01*
X351481Y218988D01*
X351490Y218972D01*
X351499Y218969D01*
X351505Y218963D01*
X376759Y208186D01*
X374520Y207864D01*
X343439Y221128D01*
X343432Y221128D01*
X343426Y221132D01*
X343406Y221128D01*
X343386Y221128D01*
X343381Y221123D01*
X343374Y221122D01*
X343363Y221105D01*
X343349Y221091D01*
X343349Y221084D01*
X343344Y221078D01*
X342679Y217831D01*
X326559Y215527D01*
X318376Y219963D01*
X318359Y219965D01*
X318344Y219971D01*
X318334Y219967D01*
X318324Y219968D01*
X318311Y219958D01*
X318295Y219951D01*
X311700Y213406D01*
X287528Y209952D01*
X275710Y216375D01*
X299710Y219801D01*
X299728Y219812D01*
X299748Y219820D01*
X309685Y229680D01*
X309692Y229699D01*
X309704Y229715D01*
X320674Y283938D01*
X320673Y283942D01*
X320675Y283945D01*
X320668Y283967D01*
X320664Y283990D01*
X320661Y283992D01*
X320659Y283996D01*
X314629Y291288D01*
X326354Y284978D01*
X326870Y284354D01*
X314440Y221995D01*
X314442Y221983D01*
X314440Y221972D01*
X314447Y221958D01*
X314450Y221943D01*
X314460Y221937D01*
X314466Y221926D01*
X314481Y221923D01*
X314494Y221914D01*
X314506Y221916D01*
X314517Y221913D01*
X330699Y224224D01*
X330712Y224232D01*
X330727Y224235D01*
X330734Y224244D01*
X330744Y224251D01*
X330748Y224265D01*
X330757Y224278D01*
X341715Y277737D01*
X349384Y278827D01*
X338525Y225434D01*
X338527Y225422D01*
X338524Y225411D01*
X338532Y225397D01*
X338535Y225382D01*
X338545Y225376D01*
X338551Y225365D01*
X338566Y225361D01*
X338579Y225353D01*
X338591Y225355D01*
X338602Y225352D01*
X354773Y227661D01*
X354786Y227669D01*
X354801Y227672D01*
X354808Y227682D01*
X354818Y227688D01*
X354822Y227703D01*
X354831Y227715D01*
X367924Y290643D01*
X367923Y290646D01*
X367925Y290650D01*
X367918Y290672D01*
X367914Y290694D01*
X367910Y290697D01*
X367909Y290700D01*
X361891Y297991D01*
X373640Y291688D01*
X374445Y290712D01*
X361674Y228739D01*
X361676Y228727D01*
X361673Y228716D01*
X361681Y228703D01*
X361684Y228688D01*
X361693Y228681D01*
X361700Y228670D01*
X361714Y228667D01*
X361727Y228658D01*
X361739Y228660D01*
X361751Y228657D01*
X394154Y233283D01*
X394172Y233294D01*
X394193Y233302D01*
X404109Y243148D01*
X404116Y243167D01*
X404128Y243183D01*
X415201Y297349D01*
X415200Y297353D01*
X415202Y297357D01*
X415195Y297379D01*
X415191Y297401D01*
X415188Y297403D01*
X415186Y297407D01*
X409095Y304678D01*
X420862Y298386D01*
D02*
G37*
G36*
X237194Y246259D02*
X233529Y228311D01*
X208839Y224793D01*
X208825Y224785D01*
X208809Y224781D01*
X208803Y224772D01*
X208794Y224766D01*
X208790Y224751D01*
X208781Y224737D01*
X208731Y224459D01*
X195384Y222557D01*
X196922Y231196D01*
X221599Y234709D01*
X221612Y234717D01*
X221627Y234720D01*
X221634Y234730D01*
X221644Y234736D01*
X221648Y234751D01*
X221657Y234764D01*
X225320Y252706D01*
X237194Y246259D01*
D02*
G37*
G36*
X155904Y216931D02*
X147644Y215754D01*
X149728Y224476D01*
X157442Y225574D01*
X155904Y216931D01*
D02*
G37*
G36*
X284304Y282310D02*
X280241Y278281D01*
X280233Y278262D01*
X280222Y278245D01*
X273656Y246014D01*
X269312Y240254D01*
X269308Y240240D01*
X269300Y240227D01*
X262487Y206374D01*
X246148Y204040D01*
X234349Y210470D01*
X250546Y212782D01*
X250560Y212790D01*
X250575Y212793D01*
X250581Y212803D01*
X250592Y212809D01*
X250596Y212824D01*
X250604Y212837D01*
X257416Y246700D01*
X273621Y268186D01*
X273625Y268201D01*
X273634Y268214D01*
X277208Y286139D01*
X284304Y282310D01*
D02*
G37*
G36*
X277422Y202566D02*
X277427Y202553D01*
X277427Y202538D01*
X277435Y202529D01*
X277440Y202517D01*
X277453Y202511D01*
X277463Y202500D01*
X277476Y202500D01*
X277487Y202495D01*
X277501Y202500D01*
X277516Y202500D01*
X280402Y203658D01*
X281178Y201374D01*
X278222Y200571D01*
X278211Y200564D01*
X278199Y200560D01*
X278192Y200548D01*
X278180Y200539D01*
X278178Y200526D01*
X278172Y200515D01*
X278175Y200501D01*
X278173Y200487D01*
X278181Y200477D01*
X278184Y200464D01*
X280009Y197976D01*
X278113Y196583D01*
X276361Y199210D01*
X276349Y199218D01*
X276342Y199229D01*
X276328Y199232D01*
X276317Y199240D01*
X276304Y199237D01*
X276290Y199240D01*
X276279Y199232D01*
X276265Y199229D01*
X276258Y199218D01*
X276246Y199210D01*
X274471Y196559D01*
X272573Y197953D01*
X274421Y200464D01*
X274424Y200477D01*
X274432Y200488D01*
X274430Y200502D01*
X274433Y200515D01*
X274426Y200527D01*
X274425Y200540D01*
X274413Y200548D01*
X274406Y200560D01*
X274393Y200564D01*
X274383Y200572D01*
X271355Y201352D01*
X272155Y203658D01*
X275091Y202500D01*
X275106Y202500D01*
X275120Y202495D01*
X275131Y202500D01*
X275144Y202500D01*
X275154Y202511D01*
X275167Y202517D01*
X275172Y202529D01*
X275180Y202538D01*
X275180Y202553D01*
X275185Y202567D01*
X275043Y205738D01*
X277563D01*
X277422Y202566D01*
D02*
G37*
G36*
X478210Y212444D02*
X476709Y205097D01*
X471432Y197568D01*
X468902Y203947D01*
X471470Y216078D01*
X478210Y212444D01*
D02*
G37*
G36*
X231388Y219352D02*
X227723Y201408D01*
X195209Y196762D01*
X183434Y203202D01*
X215799Y207822D01*
X215812Y207830D01*
X215827Y207833D01*
X215834Y207843D01*
X215844Y207849D01*
X215848Y207864D01*
X215857Y207876D01*
X219519Y225815D01*
X231388Y219352D01*
D02*
G37*
G36*
X518976Y187804D02*
X511278Y186709D01*
X514949Y204641D01*
X522648Y205736D01*
X518976Y187804D01*
D02*
G37*
G36*
X186794Y265178D02*
X187697Y264090D01*
X180888Y230585D01*
X179419Y229054D01*
X179411Y229033D01*
X179400Y229013D01*
X179401Y229009D01*
X179400Y229005D01*
X179409Y228984D01*
X179416Y228962D01*
X180333Y227858D01*
X176869Y210815D01*
X176870Y210811D01*
X176868Y210808D01*
X176875Y210786D01*
X176880Y210764D01*
X176883Y210761D01*
X176884Y210758D01*
X182218Y204339D01*
X182010Y203314D01*
X176109Y197416D01*
X176102Y197399D01*
X176091Y197383D01*
X176092Y197375D01*
X176089Y197367D01*
X176096Y197350D01*
X176099Y197331D01*
X176106Y197327D01*
X176109Y197319D01*
X176127Y197312D01*
X176142Y197300D01*
X223245Y186127D01*
X220068Y185671D01*
X175081Y196342D01*
X175072Y196341D01*
X175065Y196344D01*
X175047Y196336D01*
X175029Y196333D01*
X175024Y196327D01*
X175016Y196324D01*
X172161Y193469D01*
X139569Y188813D01*
X127821Y195263D01*
X160238Y199891D01*
X160257Y199902D01*
X160277Y199910D01*
X170151Y209778D01*
X170159Y209797D01*
X170170Y209813D01*
X173852Y227957D01*
X173851Y227961D01*
X173853Y227964D01*
X173846Y227986D01*
X173841Y228008D01*
X173838Y228011D01*
X173837Y228015D01*
X167589Y235535D01*
X177608Y245982D01*
X177615Y246000D01*
X177626Y246016D01*
X181214Y264152D01*
X181214Y264156D01*
X181215Y264159D01*
X181209Y264181D01*
X181204Y264204D01*
X181201Y264206D01*
X181200Y264209D01*
X175141Y271511D01*
X186794Y265178D01*
D02*
G37*
G36*
X161679Y173670D02*
X161684Y173656D01*
X161684Y173642D01*
X161693Y173633D01*
X161697Y173621D01*
X161710Y173615D01*
X161721Y173604D01*
X161733Y173604D01*
X161745Y173599D01*
X161759Y173604D01*
X161773Y173603D01*
X164660Y174761D01*
X165435Y172478D01*
X162479Y171675D01*
X162469Y171667D01*
X162456Y171664D01*
X162449Y171652D01*
X162437Y171643D01*
X162436Y171630D01*
X162429Y171619D01*
X162432Y171605D01*
X162431Y171591D01*
X162439Y171581D01*
X162442Y171568D01*
X164266Y169080D01*
X162370Y167687D01*
X160618Y170314D01*
X160607Y170322D01*
X160599Y170333D01*
X160586Y170336D01*
X160574Y170343D01*
X160561Y170341D01*
X160548Y170343D01*
X160536Y170336D01*
X160523Y170333D01*
X160515Y170322D01*
X160504Y170314D01*
X158728Y167663D01*
X156830Y169056D01*
X158678Y171568D01*
X158681Y171581D01*
X158689Y171592D01*
X158687Y171606D01*
X158691Y171619D01*
X158684Y171631D01*
X158682Y171644D01*
X158671Y171652D01*
X158664Y171664D01*
X158651Y171667D01*
X158640Y171675D01*
X155613Y172455D01*
X156413Y174762D01*
X159349Y173603D01*
X159363Y173604D01*
X159377Y173599D01*
X159389Y173604D01*
X159401Y173604D01*
X159411Y173615D01*
X159425Y173621D01*
X159429Y173633D01*
X159438Y173642D01*
X159438Y173657D01*
X159443Y173670D01*
X159300Y176842D01*
X161820D01*
X161679Y173670D01*
D02*
G37*
G36*
X503522Y215176D02*
X500082Y211729D01*
X500075Y211710D01*
X500063Y211694D01*
X494145Y182054D01*
X487685Y173487D01*
X487681Y173472D01*
X487672Y173459D01*
X487301Y171615D01*
X487304Y171597D01*
X487303Y171578D01*
X487309Y171572D01*
X487311Y171563D01*
X487326Y171553D01*
X487338Y171539D01*
X491325Y169641D01*
X490820Y167120D01*
X486862Y169006D01*
X486853Y169006D01*
X486846Y169011D01*
X486828Y169007D01*
X486810Y169008D01*
X486803Y169002D01*
X486794Y169001D01*
X486784Y168985D01*
X486770Y168973D01*
X486770Y168964D01*
X486765Y168957D01*
X485344Y161907D01*
X485348Y161887D01*
X485348Y161868D01*
X485353Y161862D01*
X485354Y161855D01*
X485371Y161844D01*
X485385Y161830D01*
X489417Y160109D01*
X489181Y158932D01*
X485174Y160642D01*
X485166Y160642D01*
X485160Y160646D01*
X485141Y160643D01*
X485121Y160643D01*
X485116Y160638D01*
X485109Y160636D01*
X485098Y160620D01*
X485084Y160606D01*
X485083Y160599D01*
X485079Y160593D01*
X480831Y139512D01*
X464461Y137177D01*
X452588Y143610D01*
X468818Y145924D01*
X468831Y145932D01*
X468846Y145935D01*
X468853Y145945D01*
X468863Y145951D01*
X468867Y145966D01*
X468876Y145979D01*
X475719Y179945D01*
X491968Y201494D01*
X491972Y201509D01*
X491980Y201522D01*
X495571Y219499D01*
X503522Y215176D01*
D02*
G37*
G36*
X237087Y156790D02*
X229347Y155689D01*
X230891Y164366D01*
X239180Y165544D01*
X237087Y156790D01*
D02*
G37*
G36*
X372747Y149930D02*
X364477Y148751D01*
X371841Y184400D01*
X380112Y185576D01*
X372747Y149930D01*
D02*
G37*
G36*
X136452Y149166D02*
X136473Y149118D01*
X136521Y149098D01*
X142340D01*
Y146013D01*
X136521D01*
X136473Y145993D01*
X136452Y145945D01*
Y140089D01*
X133365D01*
Y145945D01*
X133345Y145993D01*
X133297Y146013D01*
X127478D01*
Y149098D01*
X133297D01*
X133345Y149118D01*
X133365Y149166D01*
Y155022D01*
X136452D01*
Y149166D01*
D02*
G37*
G36*
X188219Y140742D02*
X180477Y139641D01*
X184140Y157621D01*
X191882Y158722D01*
X188219Y140742D01*
D02*
G37*
G36*
X278338Y136484D02*
X270054Y135304D01*
X277416Y170978D01*
X285700Y172156D01*
X278338Y136484D01*
D02*
G37*
G36*
X262825Y178266D02*
X263008Y178082D01*
X251928Y123584D01*
X251929Y123581D01*
X251927Y123577D01*
X251934Y123555D01*
X251938Y123533D01*
X251942Y123531D01*
X251943Y123527D01*
X257993Y116167D01*
X248137Y106320D01*
X240210Y105189D01*
X232916Y109177D01*
X232906Y109178D01*
X232897Y109184D01*
X232880Y109181D01*
X232863Y109183D01*
X232855Y109176D01*
X232845Y109174D01*
X232836Y109160D01*
X232822Y109150D01*
X232821Y109140D01*
X232815Y109131D01*
X231700Y103975D01*
X215448Y101657D01*
X203644Y108117D01*
X219757Y110414D01*
X219770Y110422D01*
X219785Y110425D01*
X219792Y110435D01*
X219803Y110441D01*
X219806Y110456D01*
X219815Y110468D01*
X225624Y137331D01*
X233363Y138432D01*
X228117Y111699D01*
X228120Y111687D01*
X228117Y111676D01*
X228125Y111662D01*
X228128Y111647D01*
X228137Y111640D01*
X228144Y111630D01*
X228159Y111626D01*
X228172Y111618D01*
X228183Y111620D01*
X228195Y111617D01*
X236165Y112754D01*
X236184Y112765D01*
X236204Y112773D01*
X246116Y122677D01*
X246124Y122695D01*
X246135Y122712D01*
X249923Y140835D01*
X249922Y140840D01*
X249924Y140843D01*
X249917Y140865D01*
X249913Y140887D01*
X249910Y140889D01*
X249908Y140893D01*
X243545Y148528D01*
X253599Y159014D01*
X253606Y159032D01*
X253617Y159048D01*
X257219Y177149D01*
X257219Y177153D01*
X257220Y177156D01*
X257213Y177178D01*
X257209Y177201D01*
X257206Y177202D01*
X257205Y177206D01*
X251119Y184634D01*
X262825Y178266D01*
D02*
G37*
G36*
X107745Y84672D02*
X107750Y84658D01*
X107749Y84643D01*
X107758Y84634D01*
X107762Y84622D01*
X107776Y84616D01*
X107786Y84606D01*
X107799Y84605D01*
X107810Y84600D01*
X107824Y84605D01*
X107839Y84605D01*
X110725Y85763D01*
X111500Y83480D01*
X108544Y82677D01*
X108534Y82669D01*
X108522Y82666D01*
X108514Y82653D01*
X108503Y82645D01*
X108501Y82632D01*
X108495Y82621D01*
X108498Y82607D01*
X108496Y82592D01*
X108504Y82582D01*
X108507Y82570D01*
X110332Y80082D01*
X108436Y78688D01*
X106684Y81316D01*
X106672Y81323D01*
X106665Y81335D01*
X106651Y81337D01*
X106640Y81345D01*
X106626Y81342D01*
X106613Y81345D01*
X106602Y81337D01*
X106588Y81335D01*
X106581Y81323D01*
X106569Y81316D01*
X104793Y78664D01*
X102896Y80058D01*
X104744Y82570D01*
X104747Y82583D01*
X104755Y82593D01*
X104753Y82607D01*
X104756Y82621D01*
X104749Y82632D01*
X104747Y82645D01*
X104736Y82654D01*
X104729Y82666D01*
X104716Y82669D01*
X104705Y82677D01*
X101678Y83457D01*
X102478Y85764D01*
X105414Y84605D01*
X105429Y84605D01*
X105442Y84600D01*
X105454Y84606D01*
X105467Y84606D01*
X105477Y84616D01*
X105490Y84622D01*
X105494Y84634D01*
X105503Y84643D01*
X105503Y84658D01*
X105508Y84672D01*
X105365Y87843D01*
X107885D01*
X107745Y84672D01*
D02*
G37*
G36*
X452171Y103479D02*
X452171Y103479D01*
X452171Y103479D01*
D01*
D02*
G37*
D10*
X130372Y332673D02*
X139221Y333929D01*
D12*
X722667Y413070D02*
D03*
M02*
